<svg version="1.1" id="Layer_1" xmlns="http://www.w3.org/2000/svg" xmlns:xlink="http://www.w3.org/1999/xlink" x="0px" y="0px"
	 width="100%" viewBox="0 0 2500 2500" enable-background="new 0 0 2500 2500" xml:space="preserve">
<path fill="#000000" opacity="1.000000" stroke="none" 
	d="
M1698.000000,2502.000000 
	C1132.000000,2502.000000 567.000000,2502.000000 2.000000,2502.000000 
	C2.000000,1668.666626 2.000000,835.333313 2.000000,2.000000 
	C835.333313,2.000000 1668.666626,2.000000 2502.000000,2.000000 
	C2502.000000,835.333313 2502.000000,1668.666626 2502.000000,2502.000000 
	C2234.333252,2502.000000 1966.666626,2502.000000 1698.000000,2502.000000 
M1134.999878,1143.708130 
	C1149.322998,1143.706177 1163.650513,1143.910400 1177.967407,1143.610596 
	C1184.592407,1143.471802 1191.318848,1142.924805 1197.784424,1141.551392 
	C1210.113037,1138.932373 1217.679443,1130.913086 1218.053833,1118.835449 
	C1218.651978,1099.540649 1218.642578,1080.198853 1218.017212,1060.905151 
	C1217.631104,1048.991455 1210.521606,1041.020020 1198.885620,1038.273926 
	C1192.472900,1036.760498 1185.728882,1036.087158 1179.126709,1036.036743 
	C1148.816650,1035.805298 1118.503906,1035.911987 1088.192139,1035.949707 
	C1085.682007,1035.952881 1083.172363,1036.345581 1080.783936,1036.546997 
	C1080.783936,1072.416138 1080.783936,1107.598633 1080.783936,1143.708130 
	C1098.528076,1143.708130 1115.763916,1143.708130 1134.999878,1143.708130 
M1305.728882,1075.194946 
	C1305.747314,1089.505249 1305.552612,1103.819946 1305.846558,1118.124512 
	C1306.116943,1131.280640 1312.753052,1139.245972 1325.628784,1141.913330 
	C1331.125977,1143.052124 1336.837158,1143.577148 1342.457764,1143.626831 
	C1364.088135,1143.817749 1385.722656,1143.834961 1407.352539,1143.616943 
	C1413.301270,1143.557129 1419.364624,1143.012207 1425.156616,1141.713867 
	C1437.052979,1139.047363 1443.784424,1131.182373 1444.006348,1119.209961 
	C1444.370117,1099.582275 1444.346558,1079.938965 1444.017334,1060.310181 
	C1443.826782,1048.957275 1437.901978,1041.364868 1427.106934,1038.340698 
	C1421.736328,1036.836182 1415.988281,1036.105591 1410.400513,1036.047852 
	C1386.774170,1035.803223 1363.142456,1035.802856 1339.516113,1036.045166 
	C1333.927856,1036.102417 1328.181519,1036.832397 1322.807739,1038.329102 
	C1311.991577,1041.341675 1306.437744,1048.914673 1305.852539,1060.293579 
	C1305.630615,1064.609863 1305.759766,1068.943970 1305.728882,1075.194946 
M1530.823853,1069.004272 
	C1530.823730,1079.660034 1530.796265,1090.315918 1530.834473,1100.971558 
	C1530.855957,1106.962158 1530.666138,1112.977661 1531.132080,1118.937988 
	C1532.180176,1132.348145 1538.557373,1139.463623 1551.711914,1142.110718 
	C1555.935059,1142.960571 1560.278931,1143.618652 1564.572144,1143.645630 
	C1588.546509,1143.796387 1612.522827,1143.809570 1636.497192,1143.655396 
	C1640.781250,1143.627930 1645.162842,1143.003296 1649.317749,1141.942627 
	C1657.788696,1139.780640 1663.354614,1134.520020 1664.476807,1125.486694 
	C1665.008667,1121.206177 1665.444458,1116.881592 1665.463745,1112.574829 
	C1665.562378,1090.597778 1665.510742,1068.620117 1665.511475,1046.642578 
	C1665.511597,1043.355957 1665.511597,1040.069458 1665.511597,1036.462402 
	C1658.310181,1036.462402 1651.800903,1036.462402 1644.757935,1036.462402 
	C1644.757935,1057.662231 1644.761719,1078.288330 1644.755615,1098.914551 
	C1644.753906,1104.908081 1644.950562,1110.913086 1644.646240,1116.891968 
	C1644.309082,1123.515869 1642.260498,1125.859253 1635.907715,1127.113281 
	C1633.004150,1127.686401 1629.950806,1127.625488 1626.964722,1127.634521 
	C1611.647339,1127.681274 1596.329590,1127.661011 1581.011963,1127.655640 
	C1575.351196,1127.653687 1569.676636,1127.875977 1564.032837,1127.558105 
	C1554.391602,1127.015137 1551.754761,1124.186157 1551.566772,1114.654907 
	C1551.309692,1101.626953 1552.380981,1088.624146 1551.697632,1075.560303 
	C1551.022461,1062.654663 1551.550171,1049.686157 1551.550171,1036.489136 
	C1544.326538,1036.489136 1537.826904,1036.489136 1530.823853,1036.489136 
	C1530.823853,1047.063232 1530.823853,1057.035156 1530.823853,1069.004272 
M952.655029,1102.609863 
	C961.460571,1116.288208 970.266052,1129.966553 978.820129,1143.254395 
	C986.423157,1143.254395 993.262512,1143.254395 1001.696228,1143.254395 
	C977.608032,1106.763794 954.217224,1071.329712 931.454529,1036.847168 
	C920.090210,1033.686890 914.087891,1037.848389 908.485962,1046.648926 
	C889.536438,1076.418091 869.619080,1105.570801 850.101318,1134.978882 
	C848.494812,1137.399536 847.112854,1139.969116 845.165833,1143.244385 
	C852.984314,1143.244385 859.824524,1143.244385 867.245117,1143.244385 
	C885.518494,1115.274902 903.988708,1087.004028 923.480164,1057.170166 
	C933.683838,1073.024292 942.802063,1087.191895 952.655029,1102.609863 
M1204.639893,1217.808716 
	C1203.466675,1218.697754 1201.290039,1219.567261 1201.272217,1220.478760 
	C1201.042603,1232.268799 1201.120117,1244.064697 1201.120117,1256.359375 
	C1215.104858,1256.345947 1227.838989,1256.667847 1240.987183,1256.175903 
	C1240.588623,1253.859741 1240.499268,1252.150513 1240.261230,1252.129517 
	C1229.901733,1251.217041 1219.529053,1250.453735 1208.825684,1249.647461 
	C1208.825684,1246.391479 1208.825684,1243.277954 1208.825684,1238.951782 
	C1214.496338,1238.951782 1219.778076,1239.413330 1224.937866,1238.817871 
	C1229.788574,1238.258057 1235.928101,1241.869141 1240.701050,1233.774048 
	C1229.318237,1233.430664 1219.309204,1233.128662 1208.870850,1232.813721 
	C1208.870850,1229.568848 1208.870850,1227.119751 1208.870850,1223.754517 
	C1212.720947,1223.754517 1216.319702,1223.755615 1219.918457,1223.754395 
	C1225.569824,1223.752441 1231.221436,1223.728760 1236.872681,1223.752686 
	C1240.739502,1223.769165 1241.297363,1221.802368 1239.822998,1217.791138 
	C1228.810791,1217.791138 1217.582275,1217.791138 1204.639893,1217.808716 
M1278.390625,1247.890381 
	C1278.945557,1241.855591 1277.050415,1235.529541 1280.545898,1228.189941 
	C1287.899170,1233.497070 1294.376831,1238.479614 1301.168579,1242.988525 
	C1308.112793,1247.598389 1314.000244,1254.088379 1322.946899,1257.048950 
	C1322.946899,1243.191528 1322.946899,1230.757568 1322.946899,1217.761475 
	C1320.456299,1218.195679 1318.656128,1218.509521 1317.034546,1218.792114 
	C1315.950562,1227.691406 1317.981079,1236.237793 1315.410400,1245.248291 
	C1304.125977,1236.863159 1293.711060,1229.179321 1283.364868,1221.403564 
	C1280.110718,1218.957886 1277.008545,1216.390747 1272.579834,1218.587524 
	C1272.579834,1231.039795 1272.579834,1243.485840 1272.579834,1255.789307 
	C1279.755371,1257.741333 1278.150024,1252.896606 1278.390625,1247.890381 
M1160.190796,1223.753906 
	C1163.310547,1222.790894 1169.544678,1226.327637 1168.209473,1217.935181 
	C1156.949951,1217.935181 1146.010010,1217.596924 1135.102783,1218.047974 
	C1127.162842,1218.376343 1124.835938,1221.318115 1124.589355,1229.501099 
	C1124.429443,1234.812622 1124.394531,1240.140137 1124.612183,1245.447876 
	C1124.926270,1253.112671 1127.167603,1255.601929 1134.755981,1256.180908 
	C1140.374878,1256.609619 1146.045776,1256.415894 1151.693237,1256.402710 
	C1169.329590,1256.361328 1170.635986,1254.862305 1169.137573,1236.051270 
	C1167.014893,1236.051270 1164.833008,1236.051270 1162.430176,1236.051270 
	C1162.085083,1240.786865 1161.757935,1245.277954 1161.427002,1249.819580 
	C1151.308960,1249.819580 1142.140381,1249.819580 1132.900391,1249.819580 
	C1132.900391,1240.976440 1132.900391,1232.878540 1132.900391,1223.754395 
	C1141.881714,1223.754395 1150.132446,1223.754395 1160.190796,1223.753906 
M1382.705566,1250.543823 
	C1376.163940,1250.543823 1369.622192,1250.543823 1362.950195,1250.543823 
	C1362.950195,1240.981689 1362.950195,1232.899170 1362.950195,1223.934326 
	C1374.879395,1223.934326 1386.061768,1223.934326 1397.624634,1223.934326 
	C1397.624634,1221.512939 1397.624634,1219.987915 1397.624634,1217.906494 
	C1386.506958,1217.906494 1375.568237,1217.638428 1364.650879,1218.007568 
	C1358.157349,1218.227051 1355.300781,1220.876953 1354.867676,1227.057617 
	C1354.381836,1233.989258 1354.565674,1241.001343 1354.960693,1247.949829 
	C1355.241455,1252.886230 1358.387207,1256.021362 1363.383179,1256.119629 
	C1374.846802,1256.345093 1386.317993,1256.191040 1399.634521,1256.191040 
	C1397.491089,1253.284668 1396.655640,1250.980957 1395.507812,1250.813110 
	C1391.926025,1250.289185 1388.225952,1250.573120 1382.705566,1250.543823 
M1074.132080,1230.593750 
	C1078.788574,1237.860352 1083.638184,1245.012817 1088.027710,1252.437256 
	C1090.581055,1256.756226 1093.746094,1257.019287 1098.537598,1255.565918 
	C1090.754028,1243.735718 1083.431885,1232.357056 1075.828613,1221.169312 
	C1072.643921,1216.483276 1069.388916,1216.205811 1066.425781,1220.494141 
	C1058.563477,1231.872559 1051.076660,1243.510376 1043.295410,1255.264160 
	C1048.366699,1257.530029 1051.218872,1256.169678 1053.713867,1252.120728 
	C1059.043091,1243.472900 1064.756470,1235.061890 1070.605591,1226.104980 
	C1072.027100,1227.727173 1072.682129,1228.474731 1074.132080,1230.593750 
M1460.300659,1229.534058 
	C1458.098877,1231.317139 1455.896973,1233.100220 1453.588257,1234.969727 
	C1448.037354,1229.865967 1443.076294,1225.469971 1438.313110,1220.869263 
	C1434.952881,1217.623657 1431.500610,1216.793213 1426.856445,1219.102051 
	C1430.517090,1222.512085 1433.525269,1225.625366 1436.850830,1228.351440 
	C1445.451782,1235.402222 1453.861328,1242.452881 1449.539673,1255.899414 
	C1452.936279,1255.899414 1455.110229,1255.899414 1457.602417,1255.899414 
	C1457.697510,1253.837036 1458.067017,1252.175781 1457.795776,1250.626953 
	C1456.502319,1243.240723 1459.603882,1238.139038 1465.270630,1233.625000 
	C1470.778442,1229.237549 1475.637817,1224.035889 1481.213135,1218.785889 
	C1475.894531,1216.946777 1472.446899,1217.797729 1469.376465,1221.085571 
	C1466.893311,1223.744751 1464.045410,1226.063477 1460.300659,1229.534058 
M2131.415527,299.024048 
	C2127.167969,299.473083 2122.920654,299.922119 2117.371826,300.508728 
	C2119.533691,301.967773 2120.347168,302.987518 2121.077148,302.930664 
	C2124.940186,302.629944 2128.770996,301.864777 2132.635010,301.635376 
	C2136.494141,301.406250 2140.379883,301.655487 2144.251221,301.565216 
	C2144.534424,301.558624 2144.792969,300.499298 2145.369873,299.282043 
	C2141.022705,298.983978 2136.895020,298.700928 2131.415527,299.024048 
M322.526733,1557.742065 
	C321.750977,1561.863403 320.975250,1565.984741 320.183472,1570.191040 
	C326.527527,1566.210693 327.600708,1562.083618 324.421387,1552.589355 
	C323.661713,1554.192383 323.139282,1555.294800 322.526733,1557.742065 
M1047.411255,133.199005 
	C1039.703003,134.656342 1039.314575,135.500443 1042.355835,143.064774 
	C1044.708130,140.598923 1047.256592,137.993561 1049.664307,135.264099 
	C1049.836548,135.068756 1048.979004,133.964828 1047.411255,133.199005 
M2476.786133,553.823608 
	C2475.640137,553.963806 2474.494385,554.104004 2473.017822,554.284668 
	C2478.513428,561.760132 2479.155029,562.022949 2485.333984,559.110718 
	C2482.650391,557.333923 2480.288818,555.770386 2476.786133,553.823608 
M88.987404,269.558716 
	C88.036987,269.771240 87.086578,269.983734 86.136162,270.196228 
	C88.035515,275.369751 91.605293,276.792786 99.119514,274.807343 
	C95.732048,273.025208 92.912201,271.541718 88.987404,269.558716 
M2153.729492,127.616096 
	C2150.321777,124.667023 2146.682129,125.492271 2142.108398,126.481224 
	C2145.884033,132.168549 2149.720459,131.532333 2153.729492,127.616096 
M1434.735596,94.642624 
	C1434.845825,87.456429 1430.392334,89.291656 1425.930176,89.840546 
	C1428.755737,93.246147 1431.127075,96.104324 1433.823730,99.354462 
	C1434.242310,97.752686 1434.481079,96.838791 1434.735596,94.642624 
M1050.895996,496.055878 
	C1056.148193,498.161926 1059.713379,494.716400 1063.629395,492.307495 
	C1058.840942,491.194977 1054.059082,489.876831 1050.895996,496.055878 
M2167.285645,1224.661499 
	C2169.392090,1227.349487 2172.058105,1230.121338 2175.281494,1227.301025 
	C2177.829590,1225.071411 2177.195557,1221.973511 2173.654541,1220.283936 
	C2171.657715,1221.412720 2169.738037,1222.497803 2167.285645,1224.661499 
M404.935242,245.796280 
	C402.833374,245.335388 400.731476,244.874481 397.213928,244.103149 
	C408.516418,251.131607 411.462097,251.433243 416.842316,246.770798 
	C413.359222,246.509491 409.897919,246.249802 404.935242,245.796280 
M1102.872803,891.819641 
	C1104.961182,893.911194 1106.322021,897.198792 1110.757935,896.777344 
	C1110.191895,891.373962 1107.928223,888.156616 1102.674438,886.328796 
	C1102.513428,888.132019 1102.403687,889.362061 1102.872803,891.819641 
M2248.614258,107.962761 
	C2252.047607,112.745705 2256.341309,113.722618 2261.810791,111.578819 
	C2261.376953,110.599297 2261.299316,110.114044 2261.125000,110.076294 
	C2257.298096,109.247459 2253.460693,108.468292 2248.614258,107.962761 
M1416.492310,430.691406 
	C1419.404419,431.848358 1422.256958,433.761658 1425.734741,431.695282 
	C1420.599487,426.366943 1419.913696,426.248077 1413.563599,429.348511 
	C1414.140625,429.665314 1414.707275,429.976379 1416.492310,430.691406 
M1652.179565,208.019257 
	C1653.271606,207.844345 1654.363770,207.669434 1657.484253,207.169662 
	C1650.819946,202.792740 1646.095947,201.946198 1640.376709,205.097427 
	C1643.383911,209.535431 1647.329346,207.528656 1652.179565,208.019257 
M2112.768066,1434.147095 
	C2112.391602,1432.811646 2112.015137,1431.476196 2111.638672,1430.140747 
	C2109.588623,1436.057495 2108.314453,1441.750977 2115.436035,1447.169434 
	C2114.411133,1442.300781 2113.710449,1438.972534 2112.768066,1434.147095 
M2399.855225,1320.655273 
	C2402.141113,1323.218872 2404.427246,1325.782349 2407.853027,1329.624268 
	C2406.549072,1319.324951 2406.393066,1319.159668 2399.855225,1320.655273 
M2154.522949,877.778687 
	C2151.217529,876.231262 2147.912109,874.683777 2144.606689,873.136353 
	C2144.239746,874.003784 2143.872559,874.871216 2143.505371,875.738647 
	C2145.736328,879.800598 2149.417236,880.637695 2154.522949,877.778687 
M73.856087,493.778687 
	C77.447227,492.577271 81.203018,491.565796 82.288414,486.833710 
	C73.573875,488.002899 73.422073,488.112946 73.856087,493.778687 
M1879.710327,177.979782 
	C1875.626465,175.330994 1872.694336,175.544861 1871.345093,181.596268 
	C1875.182739,182.321945 1878.530273,183.849686 1879.710327,177.979782 
M1376.531982,804.386658 
	C1376.169434,803.059326 1375.806885,801.731934 1374.978027,798.696777 
	C1372.022461,803.204773 1370.069702,806.183289 1368.116943,809.161804 
	C1368.823120,809.750977 1369.529297,810.340149 1370.235474,810.929321 
	C1372.211792,809.133545 1374.188110,807.337830 1376.531982,804.386658 
M1634.311401,697.943726 
	C1636.822144,691.592590 1632.597168,691.704834 1628.101807,691.103882 
	C1627.486328,695.796204 1629.639526,697.521179 1634.311401,697.943726 
M615.592285,1548.636108 
	C614.710693,1548.572510 613.085022,1548.339111 613.055176,1548.469849 
	C612.022217,1552.995239 613.877991,1555.638062 619.983826,1557.762695 
	C618.573975,1554.738892 617.389099,1552.197632 615.592285,1548.636108 
M366.430389,1123.286377 
	C368.101593,1122.147705 369.772797,1121.009033 372.028839,1119.471924 
	C368.857330,1117.918213 366.670013,1116.846680 364.366028,1115.717896 
	C361.281250,1118.863037 361.436432,1121.380981 366.430389,1123.286377 
M2332.171631,218.655853 
	C2329.618164,220.099365 2327.064697,221.542862 2323.245117,223.702209 
	C2330.757568,225.629730 2334.005859,223.076920 2336.924805,217.425308 
	C2334.911865,217.787537 2334.053711,217.941971 2332.171631,218.655853 
M226.480591,442.544067 
	C223.455353,440.713409 220.430115,438.882751 217.404877,437.052094 
	C216.999542,437.787933 216.594208,438.523773 216.188873,439.259613 
	C218.637161,442.094635 219.703583,447.255005 226.480591,442.544067 
M1535.652222,1655.237915 
	C1529.061523,1657.970947 1532.433838,1661.887817 1534.022339,1666.026733 
	C1540.450928,1663.650757 1537.785400,1659.924316 1535.652222,1655.237915 
M642.139160,550.809204 
	C644.445618,546.361633 643.692261,545.360535 636.746887,544.138367 
	C636.651794,547.425964 637.839966,549.605774 642.139160,550.809204 
M442.442871,166.972824 
	C442.919006,168.235504 443.395111,169.498199 444.249664,171.764450 
	C446.890991,168.533783 448.733307,166.280411 450.575623,164.027054 
	C450.100403,163.482452 449.625214,162.937866 449.149994,162.393265 
	C447.091614,163.545578 445.033264,164.697891 442.442871,166.972824 
M144.545242,1212.471069 
	C144.248520,1213.919189 143.951797,1215.367310 143.655060,1216.815430 
	C144.146286,1217.112793 144.637527,1217.410156 145.128754,1217.707520 
	C147.516983,1215.194336 149.905197,1212.681030 152.543152,1209.905029 
	C148.242249,1207.045898 146.782074,1209.270142 144.545242,1212.471069 
M970.609619,1533.383667 
	C970.347229,1530.968140 970.084900,1528.552612 969.822510,1526.137085 
	C969.110413,1526.058228 968.398315,1525.979370 967.686218,1525.900513 
	C966.986145,1528.524170 965.520813,1531.228516 965.787170,1533.750122 
	C966.093445,1536.647949 968.218872,1537.640137 970.609619,1533.383667 
M867.870972,157.855453 
	C861.488281,154.242905 859.180420,154.504440 854.015015,160.155914 
	C858.939514,159.827438 863.083679,159.551025 867.870972,157.855453 
M1346.692993,567.026245 
	C1347.872314,568.630920 1349.051514,570.235535 1351.319580,573.321899 
	C1350.278320,563.446655 1350.278320,563.446655 1344.140137,562.237610 
	C1344.914795,563.728455 1345.481812,564.819641 1346.692993,567.026245 
M1784.044678,568.395752 
	C1786.106201,571.230774 1788.156006,570.558289 1788.700928,567.657898 
	C1788.996460,566.084778 1787.406982,562.734863 1786.343140,562.591309 
	C1782.928467,562.130554 1783.433960,565.033691 1784.044678,568.395752 
M28.239151,1046.201050 
	C24.832838,1046.697754 20.509834,1046.265625 21.572392,1052.662476 
	C25.701580,1051.709229 29.384220,1051.783203 28.239151,1046.201050 
M288.444275,69.836273 
	C290.460846,68.666687 292.477417,67.497101 294.493958,66.327515 
	C294.295166,65.949356 294.096375,65.571190 293.897583,65.193024 
	C289.961273,65.862099 286.024994,66.531181 282.088684,67.200256 
	C282.063232,67.752663 282.037750,68.305069 282.012268,68.857475 
	C283.711670,69.261848 285.411072,69.666222 288.444275,69.836273 
M1048.980225,72.747993 
	C1045.683350,72.447083 1042.558960,72.756966 1038.503418,75.448715 
	C1043.232788,76.657387 1046.430786,78.200485 1048.980225,72.747993 
M1529.034424,734.547180 
	C1530.019409,733.431335 1531.004395,732.315491 1532.637329,730.465698 
	C1529.010498,730.465698 1526.538452,730.465698 1522.767456,730.465698 
	C1525.305298,732.322754 1526.621338,733.285828 1529.034424,734.547180 
M2377.575684,1809.033936 
	C2376.329834,1808.788208 2375.083740,1808.542603 2372.748535,1808.082275 
	C2374.849609,1812.363403 2374.970703,1816.717773 2381.220703,1815.681519 
	C2379.968262,1813.329834 2379.098877,1811.697876 2377.575684,1809.033936 
M2361.345459,380.424530 
	C2363.330811,379.520447 2365.316406,378.616364 2367.301758,377.712280 
	C2360.521240,376.504700 2360.521240,376.504700 2361.345459,380.424530 
M161.786957,731.561523 
	C161.944977,732.654602 162.102997,733.747681 162.435898,736.050476 
	C165.090729,732.848572 166.843643,730.734497 168.596542,728.620422 
	C168.205566,728.174805 167.814606,727.729187 167.423630,727.283630 
	C165.712860,728.393127 164.002106,729.502625 161.786957,731.561523 
M1588.264282,568.320862 
	C1589.459961,569.140076 1590.655518,569.959290 1592.801270,571.429504 
	C1593.402100,566.719604 1593.030640,563.704285 1588.739746,563.522949 
	C1585.741577,563.396240 1586.134521,565.506836 1588.264282,568.320862 
M2391.709473,955.868164 
	C2394.439941,956.929443 2397.414307,958.563232 2397.822266,952.837646 
	C2395.454590,952.359070 2393.283447,951.920166 2391.112061,951.481262 
	C2390.977539,952.736450 2390.843262,953.991577 2391.709473,955.868164 
M1833.348022,1431.464478 
	C1833.873047,1432.415527 1834.398071,1433.366699 1834.923218,1434.317749 
	C1838.551270,1432.302002 1839.007568,1429.152710 1837.343384,1425.028809 
	C1836.216187,1426.813599 1835.088867,1428.598389 1833.348022,1431.464478 
M2241.080811,341.821045 
	C2239.854492,341.366486 2238.658203,340.773010 2237.393066,340.496643 
	C2236.143311,340.223572 2234.823730,340.271027 2231.519287,340.032135 
	C2239.129150,344.087128 2239.132324,344.069122 2241.080811,341.821045 
M383.218994,793.347839 
	C390.628540,793.945068 390.628540,793.945068 393.834076,787.226318 
	C389.463593,789.219543 386.436920,790.599915 383.218994,793.347839 
M2375.099609,217.420242 
	C2376.211426,217.787430 2377.322998,218.154633 2378.434814,218.521835 
	C2378.837646,218.003937 2379.240723,217.486038 2379.643799,216.968140 
	C2378.046875,215.465652 2376.566406,213.789459 2374.769775,212.585052 
	C2374.331055,212.290985 2372.855713,213.543640 2371.856934,214.085068 
	C2372.612793,214.994049 2373.368652,215.903015 2375.099609,217.420242 
M2220.881104,1016.858948 
	C2222.283203,1018.235657 2223.685547,1019.612366 2225.087646,1020.989136 
	C2225.641602,1020.482239 2226.195801,1019.975342 2226.749756,1019.468445 
	C2224.903320,1017.091492 2223.056641,1014.714600 2221.210205,1012.337708 
	C2220.797607,1012.611633 2220.384766,1012.885498 2219.972168,1013.159424 
	C2220.066895,1014.087891 2220.161621,1015.016418 2220.881104,1016.858948 
M1372.137817,256.187286 
	C1369.765381,255.904724 1367.109863,254.730911 1365.173462,258.558502 
	C1368.788330,259.921875 1371.174194,259.475342 1372.137817,256.187286 
M569.717041,1083.084961 
	C570.988159,1078.548706 568.563171,1077.045898 563.820618,1077.465210 
	C565.421936,1079.327271 567.023254,1081.189209 569.717041,1083.084961 
M390.733276,82.038078 
	C388.464996,82.588318 386.196716,83.138565 383.928467,83.688805 
	C384.015625,84.550934 384.102814,85.413071 384.189972,86.275200 
	C387.133087,86.130547 390.076172,85.985893 393.019287,85.841248 
	C392.765320,84.610832 392.511353,83.380417 390.733276,82.038078 
M2374.997070,66.199425 
	C2376.871094,66.807838 2378.733398,67.467964 2380.645996,67.908607 
	C2380.773926,67.938072 2381.284912,66.305031 2381.617676,65.445259 
	C2379.653809,64.862251 2377.705322,64.211143 2375.709961,63.769958 
	C2375.411865,63.704010 2374.895508,64.622818 2374.997070,66.199425 
M1815.565186,476.838959 
	C1811.136841,476.883789 1809.918823,479.594696 1809.183228,484.076141 
	C1813.522095,483.138885 1816.527710,482.347046 1815.565186,476.838959 
M146.046021,770.808899 
	C144.953598,770.238159 143.861160,769.667480 142.768723,769.096741 
	C142.452606,769.473083 142.136490,769.849426 141.820374,770.225708 
	C142.930038,772.131104 144.039703,774.036438 146.290649,777.901428 
	C146.290649,774.251404 146.290649,773.019348 146.046021,770.808899 
M2209.490967,377.689911 
	C2207.541260,378.679199 2205.591309,379.668457 2203.641602,380.657715 
	C2205.477051,382.511841 2207.909424,383.556305 2208.990234,382.762024 
	C2210.657715,381.536835 2211.399658,379.052277 2212.533936,377.101898 
	C2211.921875,377.107697 2211.309814,377.113495 2209.490967,377.689911 
M874.419495,622.243958 
	C878.879578,622.602844 880.685364,620.673340 879.978210,615.561279 
	C876.440735,616.600098 873.022095,616.645020 874.419495,622.243958 
M1258.422729,1635.586914 
	C1259.936279,1638.580933 1261.182129,1641.962524 1265.835693,1640.496948 
	C1262.774658,1639.105103 1264.514893,1632.237183 1258.422729,1635.586914 
M1810.537354,744.455627 
	C1812.003174,743.379761 1813.468994,742.303894 1816.169434,740.321838 
	C1809.115723,740.093628 1809.115723,740.093628 1810.537354,744.455627 
M209.395874,1113.594238 
	C208.993973,1112.907227 208.311661,1111.588501 208.230591,1111.624390 
	C204.844666,1113.127075 203.113861,1115.694214 204.313583,1120.178833 
	C205.807861,1118.344971 207.302155,1116.511230 209.395874,1113.594238 
M39.691883,111.177719 
	C43.592892,112.165764 44.706738,109.763321 45.991776,106.002022 
	C42.093147,106.128700 37.735394,103.415466 39.691883,111.177719 
M1222.419556,1512.720825 
	C1227.807007,1513.645142 1228.324097,1509.899902 1229.403687,1506.693848 
	C1228.878540,1506.216675 1228.353516,1505.739380 1227.828369,1505.262207 
	C1226.127197,1507.342407 1224.426025,1509.422485 1222.419556,1512.720825 
M646.365845,130.067398 
	C644.882690,130.906784 643.399597,131.746170 640.676697,133.287186 
	C643.745728,134.470535 645.591248,135.916153 647.131836,135.642807 
	C652.411377,134.706223 651.068787,132.490768 646.365845,130.067398 
M1100.184082,683.330750 
	C1101.105713,686.633118 1103.218384,687.653320 1106.856689,687.116516 
	C1106.806030,682.018311 1105.058594,680.239258 1100.184082,683.330750 
M175.513184,1674.998169 
	C175.698502,1673.532593 175.883835,1672.067017 176.164841,1669.844604 
	C171.407196,1673.831543 171.407196,1673.831543 170.850876,1679.217529 
	C172.531036,1677.841797 173.669586,1676.909668 175.513184,1674.998169 
M396.801208,724.602051 
	C399.886108,725.817871 401.122070,723.910522 401.403870,721.436890 
	C401.488586,720.693176 399.871490,719.074097 398.964508,719.019958 
	C395.529907,718.814758 395.568146,721.184692 396.801208,724.602051 
M644.549255,822.784485 
	C642.659058,822.497742 640.768799,822.210999 637.751648,821.753296 
	C642.580444,827.926758 642.580444,827.926758 644.549255,822.784485 
M2389.061523,813.436401 
	C2387.171143,811.711365 2386.053955,808.327148 2381.278320,810.300110 
	C2383.517334,812.662109 2385.179199,814.549011 2387.052979,816.194946 
	C2387.250244,816.368286 2388.694092,815.122620 2389.061523,813.436401 
M2150.630371,726.781311 
	C2152.067627,722.300354 2152.067627,722.300354 2146.568604,722.541504 
	C2147.833984,724.014038 2148.799805,725.137756 2150.630371,726.781311 
M1995.114380,117.538773 
	C1994.290283,117.884552 1993.466309,118.230331 1992.642212,118.576096 
	C1993.958496,121.457893 1995.691895,123.811943 1999.072876,124.411407 
	C2000.778076,120.596458 1999.041504,118.970245 1995.114380,117.538773 
M1455.435425,116.016068 
	C1453.474487,116.016068 1451.513550,116.016068 1448.926514,116.016068 
	C1451.394653,120.956367 1454.550781,120.782303 1458.050049,119.036507 
	C1458.103516,119.009850 1457.220703,117.106110 1455.435425,116.016068 
M1374.087891,607.462646 
	C1373.763306,608.986633 1373.438599,610.510559 1373.113892,612.034546 
	C1374.868042,611.213196 1377.500732,610.826233 1378.171875,609.469238 
	C1379.194702,607.400818 1377.823853,605.894287 1374.087891,607.462646 
M2254.316895,466.258118 
	C2255.461182,464.622955 2256.605713,462.987823 2257.750244,461.352661 
	C2257.392334,461.010742 2257.034424,460.668823 2256.676514,460.326904 
	C2254.597900,461.757202 2252.519043,463.187531 2249.871094,465.009613 
	C2251.554688,465.797028 2252.363281,466.175262 2254.316895,466.258118 
M1146.822876,493.876801 
	C1141.884888,497.333557 1141.884888,497.333557 1143.235352,504.190826 
	C1145.039062,500.563416 1146.459595,497.706818 1146.822876,493.876801 
M293.608551,357.200653 
	C291.905914,356.512909 290.203278,355.825134 288.500641,355.137360 
	C291.246674,358.811707 291.246674,358.811707 293.608551,357.200653 
M2378.012207,1064.926758 
	C2379.136719,1065.102661 2380.260986,1065.278442 2381.385498,1065.454346 
	C2381.557617,1064.915405 2381.729736,1064.376343 2381.901855,1063.837280 
	C2380.046143,1063.032837 2378.190674,1062.228271 2376.334961,1061.423828 
	C2376.601074,1062.416870 2376.867432,1063.409912 2378.012207,1064.926758 
M182.964325,320.145447 
	C185.056915,322.540802 187.376373,323.336090 190.364258,319.812927 
	C187.851761,319.509979 185.339264,319.207001 182.964325,320.145447 
M733.713074,498.690552 
	C732.757263,497.261505 731.801392,495.832428 730.845581,494.403381 
	C730.099609,496.260437 728.403442,498.378601 728.825562,499.914642 
	C729.495422,502.352142 731.584167,502.220703 733.713074,498.690552 
M580.190430,99.951164 
	C579.389221,98.570084 578.587952,97.189003 577.786804,95.807930 
	C577.161072,97.099060 575.939453,98.452728 576.066711,99.664818 
	C576.211853,101.047806 577.558533,102.304680 578.383057,103.616364 
	C579.052246,102.811501 579.721375,102.006638 580.190430,99.951164 
M914.156494,497.193359 
	C913.940186,498.675659 913.723938,500.157990 913.507690,501.640289 
	C913.978577,501.921326 914.449463,502.202362 914.920410,502.483429 
	C916.666504,500.681610 918.412659,498.879791 921.777588,495.407532 
	C917.908447,495.915253 916.445618,496.107208 914.156494,497.193359 
M874.390869,587.448792 
	C875.737976,587.720154 877.085144,587.991516 878.432251,588.262878 
	C877.739990,586.928528 877.383728,585.050720 876.286072,584.371887 
	C873.934448,582.917480 873.480408,584.476318 874.390869,587.448792 
M1414.885742,984.201111 
	C1417.522949,987.997437 1417.522949,987.997437 1421.308105,983.737610 
	C1419.175171,983.737610 1417.600830,983.737610 1414.885742,984.201111 
M564.448669,305.864227 
	C568.860657,302.440155 567.055237,300.490356 561.845581,298.283051 
	C562.424744,301.285889 562.814758,303.307861 564.448669,305.864227 
M54.736256,76.854294 
	C54.196590,76.540428 53.673061,76.189445 53.104416,75.942245 
	C52.982452,75.889229 52.545216,76.182205 52.509388,76.365791 
	C51.606346,80.992943 54.380409,81.476624 59.506115,81.905525 
	C57.521294,79.606445 56.608936,78.549637 54.736256,76.854294 
M1883.362061,425.402100 
	C1884.093628,424.187347 1884.825195,422.972595 1885.556763,421.757843 
	C1885.164673,421.427399 1884.772583,421.096924 1884.380493,420.766479 
	C1882.606323,422.170593 1880.832153,423.574738 1877.942383,425.861938 
	C1880.532837,425.861938 1881.471069,425.861938 1883.362061,425.402100 
M298.966278,1815.971191 
	C299.893463,1817.732666 300.820679,1819.494141 301.747864,1821.255615 
	C302.184937,1817.364136 303.280487,1813.433350 298.934570,1810.031982 
	C298.705841,1812.292725 298.584198,1813.495117 298.966278,1815.971191 
M2038.651978,645.773193 
	C2040.176514,646.303833 2041.700928,646.834473 2043.225464,647.365112 
	C2043.166870,645.882263 2043.108276,644.399353 2043.049561,642.916504 
	C2041.521973,643.444031 2039.994263,643.971558 2038.651978,645.773193 
M693.593384,356.255066 
	C695.378418,356.490570 697.163452,356.726074 698.948486,356.961578 
	C696.992432,353.917450 695.066895,352.126740 693.593384,356.255066 
M1871.469482,53.924728 
	C1868.886230,56.158531 1869.337646,58.673622 1870.328003,62.065514 
	C1873.730469,59.619671 1874.945923,57.457214 1871.469482,53.924728 
M2189.384033,1314.911011 
	C2191.031494,1317.421509 2193.025635,1318.664551 2197.796387,1316.341187 
	C2194.211914,1315.344482 2192.289062,1314.809814 2189.384033,1314.911011 
M673.576599,1309.693970 
	C672.817749,1309.229980 672.058838,1308.765991 669.733093,1307.344116 
	C670.737061,1311.204102 671.367676,1313.628662 671.998230,1316.053223 
	C672.579590,1315.943848 673.160889,1315.834595 673.742249,1315.725220 
	C673.826660,1314.157227 673.911072,1312.589111 673.576599,1309.693970 
M235.873886,1434.116089 
	C237.742096,1433.534912 239.610291,1432.953735 241.478500,1432.372559 
	C238.522583,1430.641724 235.977280,1430.140137 235.873886,1434.116089 
M2138.777832,467.157745 
	C2138.961426,466.395844 2139.145020,465.633911 2139.328613,464.872009 
	C2137.139404,464.966858 2134.950195,465.061707 2132.761230,465.156555 
	C2133.551270,466.860443 2134.093750,467.323364 2134.692139,467.413269 
	C2135.651611,467.557495 2136.648193,467.454742 2138.777832,467.157745 
M177.884552,165.078888 
	C173.143219,165.162933 173.143219,165.162933 172.021545,170.284958 
	C174.263153,168.790863 176.026138,167.615768 177.884552,165.078888 
M308.183563,286.155060 
	C308.272614,285.686890 308.427063,285.215912 308.407104,284.752411 
	C308.401764,284.628204 307.812866,284.365509 307.579102,284.440063 
	C305.128815,285.221436 302.696259,286.058441 300.258789,286.880066 
	C300.353546,287.253448 300.448303,287.626801 300.543030,288.000183 
	C302.747467,287.650085 304.951874,287.299957 308.183563,286.155060 
M2239.985596,1962.746948 
	C2240.309814,1964.006958 2240.633789,1965.266968 2240.958008,1966.526978 
	C2241.635742,1966.477783 2242.313721,1966.428467 2242.991455,1966.379272 
	C2243.211182,1963.973511 2243.430664,1961.567749 2243.650391,1959.161987 
	C2243.052979,1958.995605 2242.455566,1958.829102 2241.858154,1958.662598 
	C2241.263672,1959.578491 2240.668945,1960.494385 2239.985596,1962.746948 
M1383.081055,1747.628418 
	C1381.956177,1748.550171 1380.831299,1749.471802 1379.706543,1750.393555 
	C1380.341675,1750.919067 1380.976685,1751.444580 1381.611816,1751.970093 
	C1382.280762,1750.781982 1382.949829,1749.593872 1383.081055,1747.628418 
M956.039734,1704.464355 
	C956.959961,1703.677368 957.880188,1702.890259 958.800354,1702.103271 
	C958.091309,1701.578125 957.382324,1701.052979 956.673401,1700.527832 
	C956.252808,1701.559570 955.832153,1702.591187 956.039734,1704.464355 
M643.117126,365.133423 
	C641.704102,363.585571 640.291077,362.037750 638.154785,359.697571 
	C637.368713,364.444885 639.185059,365.582977 643.117126,365.133423 
M1798.081787,1722.466797 
	C1798.935547,1723.165649 1799.789307,1723.864380 1800.643066,1724.563110 
	C1801.020752,1722.728638 1801.398315,1720.894043 1801.776001,1719.059570 
	C1801.297119,1718.880981 1800.818115,1718.702271 1800.339233,1718.523682 
	C1799.595337,1719.411987 1798.851440,1720.300293 1798.081787,1722.466797 
M1782.123901,324.609406 
	C1782.931885,325.335846 1783.739868,326.062317 1784.547729,326.788818 
	C1784.540649,324.892303 1784.533569,322.995789 1784.526367,321.099213 
	C1783.725952,321.838135 1782.925537,322.577026 1782.123901,324.609406 
M176.446609,1761.899658 
	C177.545074,1761.615967 178.643539,1761.332153 179.741974,1761.048340 
	C179.219162,1759.740234 178.696350,1758.432007 178.173523,1757.123901 
	C177.485779,1758.285889 176.798050,1759.447876 176.446609,1761.899658 
M2282.626465,225.901443 
	C2282.955322,225.115128 2283.283936,224.328812 2283.612793,223.542572 
	C2282.460205,223.344727 2281.307861,223.146881 2280.155273,222.949036 
	C2280.631104,223.888870 2281.106689,224.828720 2282.626465,225.901443 
M655.544250,1860.237427 
	C651.474976,1860.085327 651.474976,1860.085327 654.554321,1866.158569 
	C655.171936,1864.168091 655.577332,1862.861572 655.544250,1860.237427 
M1095.057007,1890.611328 
	C1095.922485,1891.711182 1096.788086,1892.810913 1097.653687,1893.910645 
	C1098.114502,1893.533691 1098.575439,1893.156860 1099.036255,1892.779907 
	C1097.952148,1891.825684 1096.867920,1890.871338 1095.057007,1890.611328 
M1077.427368,892.194946 
	C1077.546875,893.357483 1077.666260,894.519958 1077.785645,895.682556 
	C1079.068604,895.113220 1080.351562,894.543884 1081.634399,893.974487 
	C1080.737915,893.338074 1079.841431,892.701721 1077.427368,892.194946 
z"/>
<path fill="#F7F7F7" opacity="1.000000" stroke="none" 
	d="
M1133.999756,1143.708130 
	C1115.763916,1143.708130 1098.528076,1143.708130 1080.783936,1143.708130 
	C1080.783936,1107.598633 1080.783936,1072.416138 1080.783936,1036.546997 
	C1083.172363,1036.345581 1085.682007,1035.952881 1088.192139,1035.949707 
	C1118.503906,1035.911987 1148.816650,1035.805298 1179.126709,1036.036743 
	C1185.728882,1036.087158 1192.472900,1036.760498 1198.885620,1038.273926 
	C1210.521606,1041.020020 1217.631104,1048.991455 1218.017212,1060.905151 
	C1218.642578,1080.198853 1218.651978,1099.540649 1218.053833,1118.835449 
	C1217.679443,1130.913086 1210.113037,1138.932373 1197.784424,1141.551392 
	C1191.318848,1142.924805 1184.592407,1143.471802 1177.967407,1143.610596 
	C1163.650513,1143.910400 1149.322998,1143.706177 1133.999756,1143.708130 
M1100.636108,1055.777588 
	C1100.629883,1067.770630 1100.567627,1079.764038 1100.633179,1091.756592 
	C1100.698120,1103.613281 1100.328369,1115.493286 1100.877930,1127.651245 
	C1128.771484,1127.651245 1155.407837,1127.678467 1182.043945,1127.602905 
	C1184.339111,1127.596436 1186.643555,1126.968140 1188.924316,1126.528320 
	C1194.586426,1125.436157 1197.916992,1121.912964 1197.972778,1116.221924 
	C1198.145996,1098.571533 1198.127197,1080.916626 1197.931152,1063.266235 
	C1197.867676,1057.553711 1194.316040,1054.051025 1188.888184,1052.806641 
	C1186.001221,1052.144775 1182.949341,1051.983765 1179.970703,1051.974731 
	C1155.984863,1051.901855 1131.998291,1051.862061 1108.013062,1051.996338 
	C1105.614868,1052.009644 1103.223511,1053.247192 1100.636108,1055.777588 
z"/>
<path fill="#F7F7F7" opacity="1.000000" stroke="none" 
	d="
M1305.728882,1074.232422 
	C1305.759766,1068.943970 1305.630615,1064.609863 1305.852539,1060.293579 
	C1306.437744,1048.914673 1311.991577,1041.341675 1322.807739,1038.329102 
	C1328.181519,1036.832397 1333.927856,1036.102417 1339.516113,1036.045166 
	C1363.142456,1035.802856 1386.774170,1035.803223 1410.400513,1036.047852 
	C1415.988281,1036.105591 1421.736328,1036.836182 1427.106934,1038.340698 
	C1437.901978,1041.364868 1443.826782,1048.957275 1444.017334,1060.310181 
	C1444.346558,1079.938965 1444.370117,1099.582275 1444.006348,1119.209961 
	C1443.784424,1131.182373 1437.052979,1139.047363 1425.156616,1141.713867 
	C1419.364624,1143.012207 1413.301270,1143.557129 1407.352539,1143.616943 
	C1385.722656,1143.834961 1364.088135,1143.817749 1342.457764,1143.626831 
	C1336.837158,1143.577148 1331.125977,1143.052124 1325.628784,1141.913330 
	C1312.753052,1139.245972 1306.116943,1131.280640 1305.846558,1118.124512 
	C1305.552612,1103.819946 1305.747314,1089.505249 1305.728882,1074.232422 
M1326.020020,1089.004272 
	C1326.018799,1097.651611 1325.915405,1106.300415 1326.044800,1114.945801 
	C1326.177490,1123.811035 1328.979370,1127.383057 1337.807983,1127.514160 
	C1362.413452,1127.879272 1387.030640,1127.871582 1411.637085,1127.542725 
	C1420.948608,1127.418213 1423.826172,1123.858032 1423.888550,1114.399658 
	C1423.993896,1098.436157 1423.958984,1082.471191 1423.905518,1066.507080 
	C1423.865967,1054.717896 1421.239502,1052.049316 1409.095703,1051.949341 
	C1392.467407,1051.812622 1375.837036,1051.898193 1359.207642,1051.910278 
	C1351.891357,1051.915649 1344.558594,1051.679565 1337.263306,1052.087891 
	C1328.937134,1052.554199 1326.221680,1055.620972 1326.051880,1064.065430 
	C1325.898071,1071.711914 1326.019775,1079.363892 1326.020020,1089.004272 
z"/>
<path fill="#EFEFEF" opacity="1.000000" stroke="none" 
	d="
M1530.823853,1068.005615 
	C1530.823853,1057.035156 1530.823853,1047.063232 1530.823853,1036.489136 
	C1537.826904,1036.489136 1544.326538,1036.489136 1551.550171,1036.489136 
	C1551.550171,1049.686157 1551.022461,1062.654663 1551.697632,1075.560303 
	C1552.380981,1088.624146 1551.309692,1101.626953 1551.566772,1114.654907 
	C1551.754761,1124.186157 1554.391602,1127.015137 1564.032837,1127.558105 
	C1569.676636,1127.875977 1575.351196,1127.653687 1581.011963,1127.655640 
	C1596.329590,1127.661011 1611.647339,1127.681274 1626.964722,1127.634521 
	C1629.950806,1127.625488 1633.004150,1127.686401 1635.907715,1127.113281 
	C1642.260498,1125.859253 1644.309082,1123.515869 1644.646240,1116.891968 
	C1644.950562,1110.913086 1644.753906,1104.908081 1644.755615,1098.914551 
	C1644.761719,1078.288330 1644.757935,1057.662231 1644.757935,1036.462402 
	C1651.800903,1036.462402 1658.310181,1036.462402 1665.511597,1036.462402 
	C1665.511597,1040.069458 1665.511597,1043.355957 1665.511475,1046.642578 
	C1665.510742,1068.620117 1665.562378,1090.597778 1665.463745,1112.574829 
	C1665.444458,1116.881592 1665.008667,1121.206177 1664.476807,1125.486694 
	C1663.354614,1134.520020 1657.788696,1139.780640 1649.317749,1141.942627 
	C1645.162842,1143.003296 1640.781250,1143.627930 1636.497192,1143.655396 
	C1612.522827,1143.809570 1588.546509,1143.796387 1564.572144,1143.645630 
	C1560.278931,1143.618652 1555.935059,1142.960571 1551.711914,1142.110718 
	C1538.557373,1139.463623 1532.180176,1132.348145 1531.132080,1118.937988 
	C1530.666138,1112.977661 1530.855957,1106.962158 1530.834473,1100.971558 
	C1530.796265,1090.315918 1530.823730,1079.660034 1530.823853,1068.005615 
z"/>
<path fill="#F7F7F7" opacity="1.000000" stroke="none" 
	d="
M952.287659,1101.984619 
	C942.802063,1087.191895 933.683838,1073.024292 923.480164,1057.170166 
	C903.988708,1087.004028 885.518494,1115.274902 867.245117,1143.244385 
	C859.824524,1143.244385 852.984314,1143.244385 845.165833,1143.244385 
	C847.112854,1139.969116 848.494812,1137.399536 850.101318,1134.978882 
	C869.619080,1105.570801 889.536438,1076.418091 908.485962,1046.648926 
	C914.087891,1037.848389 920.090210,1033.686890 931.454529,1036.847168 
	C954.217224,1071.329712 977.608032,1106.763794 1001.696228,1143.254395 
	C993.262512,1143.254395 986.423157,1143.254395 978.820129,1143.254395 
	C970.266052,1129.966553 961.460571,1116.288208 952.287659,1101.984619 
z"/>
<path fill="#EFEFEF" opacity="1.000000" stroke="none" 
	d="
M1205.496826,1217.799927 
	C1217.582275,1217.791138 1228.810791,1217.791138 1239.822998,1217.791138 
	C1241.297363,1221.802368 1240.739502,1223.769165 1236.872681,1223.752686 
	C1231.221436,1223.728760 1225.569824,1223.752441 1219.918457,1223.754395 
	C1216.319702,1223.755615 1212.720947,1223.754517 1208.870850,1223.754517 
	C1208.870850,1227.119751 1208.870850,1229.568848 1208.870850,1232.813721 
	C1219.309204,1233.128662 1229.318237,1233.430664 1240.701050,1233.774048 
	C1235.928101,1241.869141 1229.788574,1238.258057 1224.937866,1238.817871 
	C1219.778076,1239.413330 1214.496338,1238.951782 1208.825684,1238.951782 
	C1208.825684,1243.277954 1208.825684,1246.391479 1208.825684,1249.647461 
	C1219.529053,1250.453735 1229.901733,1251.217041 1240.261230,1252.129517 
	C1240.499268,1252.150513 1240.588623,1253.859741 1240.987183,1256.175903 
	C1227.838989,1256.667847 1215.104858,1256.345947 1201.120117,1256.359375 
	C1201.120117,1244.064697 1201.042603,1232.268799 1201.272217,1220.478760 
	C1201.290039,1219.567261 1203.466675,1218.697754 1205.496826,1217.799927 
z"/>
<path fill="#EFEFEF" opacity="1.000000" stroke="none" 
	d="
M1278.390137,1248.725220 
	C1278.150024,1252.896606 1279.755371,1257.741333 1272.579834,1255.789307 
	C1272.579834,1243.485840 1272.579834,1231.039795 1272.579834,1218.587524 
	C1277.008545,1216.390747 1280.110718,1218.957886 1283.364868,1221.403564 
	C1293.711060,1229.179321 1304.125977,1236.863159 1315.410400,1245.248291 
	C1317.981079,1236.237793 1315.950562,1227.691406 1317.034546,1218.792114 
	C1318.656128,1218.509521 1320.456299,1218.195679 1322.946899,1217.761475 
	C1322.946899,1230.757568 1322.946899,1243.191528 1322.946899,1257.048950 
	C1314.000244,1254.088379 1308.112793,1247.598389 1301.168579,1242.988525 
	C1294.376831,1238.479614 1287.899170,1233.497070 1280.545898,1228.189941 
	C1277.050415,1235.529541 1278.945557,1241.855591 1278.390137,1248.725220 
z"/>
<path fill="#EFEFEF" opacity="1.000000" stroke="none" 
	d="
M1159.286865,1223.754150 
	C1150.132446,1223.754395 1141.881714,1223.754395 1132.900391,1223.754395 
	C1132.900391,1232.878540 1132.900391,1240.976440 1132.900391,1249.819580 
	C1142.140381,1249.819580 1151.308960,1249.819580 1161.427002,1249.819580 
	C1161.757935,1245.277954 1162.085083,1240.786865 1162.430176,1236.051270 
	C1164.833008,1236.051270 1167.014893,1236.051270 1169.137573,1236.051270 
	C1170.635986,1254.862305 1169.329590,1256.361328 1151.693237,1256.402710 
	C1146.045776,1256.415894 1140.374878,1256.609619 1134.755981,1256.180908 
	C1127.167603,1255.601929 1124.926270,1253.112671 1124.612183,1245.447876 
	C1124.394531,1240.140137 1124.429443,1234.812622 1124.589355,1229.501099 
	C1124.835938,1221.318115 1127.162842,1218.376343 1135.102783,1218.047974 
	C1146.010010,1217.596924 1156.949951,1217.935181 1168.209473,1217.935181 
	C1169.544678,1226.327637 1163.310547,1222.790894 1159.286865,1223.754150 
z"/>
<path fill="#EFEFEF" opacity="1.000000" stroke="none" 
	d="
M1383.638672,1250.543823 
	C1388.225952,1250.573120 1391.926025,1250.289185 1395.507812,1250.813110 
	C1396.655640,1250.980957 1397.491089,1253.284668 1399.634521,1256.191040 
	C1386.317993,1256.191040 1374.846802,1256.345093 1363.383179,1256.119629 
	C1358.387207,1256.021362 1355.241455,1252.886230 1354.960693,1247.949829 
	C1354.565674,1241.001343 1354.381836,1233.989258 1354.867676,1227.057617 
	C1355.300781,1220.876953 1358.157349,1218.227051 1364.650879,1218.007568 
	C1375.568237,1217.638428 1386.506958,1217.906494 1397.624634,1217.906494 
	C1397.624634,1219.987915 1397.624634,1221.512939 1397.624634,1223.934326 
	C1386.061768,1223.934326 1374.879395,1223.934326 1362.950195,1223.934326 
	C1362.950195,1232.899170 1362.950195,1240.981689 1362.950195,1250.543823 
	C1369.622192,1250.543823 1376.163940,1250.543823 1383.638672,1250.543823 
z"/>
<path fill="#EFEFEF" opacity="1.000000" stroke="none" 
	d="
M1073.734619,1229.907959 
	C1072.682129,1228.474731 1072.027100,1227.727173 1070.605591,1226.104980 
	C1064.756470,1235.061890 1059.043091,1243.472900 1053.713867,1252.120728 
	C1051.218872,1256.169678 1048.366699,1257.530029 1043.295410,1255.264160 
	C1051.076660,1243.510376 1058.563477,1231.872559 1066.425781,1220.494141 
	C1069.388916,1216.205811 1072.643921,1216.483276 1075.828613,1221.169312 
	C1083.431885,1232.357056 1090.754028,1243.735718 1098.537598,1255.565918 
	C1093.746094,1257.019287 1090.581055,1256.756226 1088.027710,1252.437256 
	C1083.638184,1245.012817 1078.788574,1237.860352 1073.734619,1229.907959 
z"/>
<path fill="#EFEFEF" opacity="1.000000" stroke="none" 
	d="
M1460.829956,1229.033569 
	C1464.045410,1226.063477 1466.893311,1223.744751 1469.376465,1221.085571 
	C1472.446899,1217.797729 1475.894531,1216.946777 1481.213135,1218.785889 
	C1475.637817,1224.035889 1470.778442,1229.237549 1465.270630,1233.625000 
	C1459.603882,1238.139038 1456.502319,1243.240723 1457.795776,1250.626953 
	C1458.067017,1252.175781 1457.697510,1253.837036 1457.602417,1255.899414 
	C1455.110229,1255.899414 1452.936279,1255.899414 1449.539673,1255.899414 
	C1453.861328,1242.452881 1445.451782,1235.402222 1436.850830,1228.351440 
	C1433.525269,1225.625366 1430.517090,1222.512085 1426.856445,1219.102051 
	C1431.500610,1216.793213 1434.952881,1217.623657 1438.313110,1220.869263 
	C1443.076294,1225.469971 1448.037354,1229.865967 1453.588257,1234.969727 
	C1455.896973,1233.100220 1458.098877,1231.317139 1460.829956,1229.033569 
z"/>
<path fill="#949494" opacity="1.000000" stroke="none" 
	d="
M2132.091309,298.720978 
	C2136.895020,298.700928 2141.022705,298.983978 2145.369873,299.282043 
	C2144.792969,300.499298 2144.534424,301.558624 2144.251221,301.565216 
	C2140.379883,301.655487 2136.494141,301.406250 2132.635010,301.635376 
	C2128.770996,301.864777 2124.940186,302.629944 2121.077148,302.930664 
	C2120.347168,302.987518 2119.533691,301.967773 2117.371826,300.508728 
	C2122.920654,299.922119 2127.167969,299.473083 2132.091309,298.720978 
z"/>
<path fill="#949494" opacity="1.000000" stroke="none" 
	d="
M322.571777,1557.069580 
	C323.139282,1555.294800 323.661713,1554.192383 324.421387,1552.589355 
	C327.600708,1562.083618 326.527527,1566.210693 320.183472,1570.191040 
	C320.975250,1565.984741 321.750977,1561.863403 322.571777,1557.069580 
z"/>
<path fill="#949494" opacity="1.000000" stroke="none" 
	d="
M1048.005737,133.241180 
	C1048.979004,133.964828 1049.836548,135.068756 1049.664307,135.264099 
	C1047.256592,137.993561 1044.708130,140.598923 1042.355835,143.064774 
	C1039.314575,135.500443 1039.703003,134.656342 1048.005737,133.241180 
z"/>
<path fill="#949494" opacity="1.000000" stroke="none" 
	d="
M2477.356934,554.015198 
	C2480.288818,555.770386 2482.650391,557.333923 2485.333984,559.110718 
	C2479.155029,562.022949 2478.513428,561.760132 2473.017822,554.284668 
	C2474.494385,554.104004 2475.640137,553.963806 2477.356934,554.015198 
z"/>
<path fill="#949494" opacity="1.000000" stroke="none" 
	d="
M89.539879,269.808472 
	C92.912201,271.541718 95.732048,273.025208 99.119514,274.807343 
	C91.605293,276.792786 88.035515,275.369751 86.136169,270.196228 
	C87.086578,269.983734 88.036987,269.771240 89.539879,269.808472 
z"/>
<path fill="#949494" opacity="1.000000" stroke="none" 
	d="
M2153.819336,128.178314 
	C2149.720459,131.532333 2145.884033,132.168549 2142.108398,126.481224 
	C2146.682129,125.492271 2150.321777,124.667023 2153.819336,128.178314 
z"/>
<path fill="#949494" opacity="1.000000" stroke="none" 
	d="
M1434.727783,95.283752 
	C1434.481079,96.838791 1434.242310,97.752686 1433.823730,99.354462 
	C1431.127075,96.104324 1428.755737,93.246147 1425.930176,89.840546 
	C1430.392334,89.291656 1434.845825,87.456429 1434.727783,95.283752 
z"/>
<path fill="#949494" opacity="1.000000" stroke="none" 
	d="
M1050.693604,495.409912 
	C1054.059082,489.876831 1058.840942,491.194977 1063.629395,492.307495 
	C1059.713379,494.716400 1056.148193,498.161926 1050.693604,495.409912 
z"/>
<path fill="#949494" opacity="1.000000" stroke="none" 
	d="
M2167.552002,1224.122192 
	C2169.738037,1222.497803 2171.657715,1221.412720 2173.654541,1220.283936 
	C2177.195557,1221.973511 2177.829590,1225.071411 2175.281494,1227.301025 
	C2172.058105,1230.121338 2169.392090,1227.349487 2167.552002,1224.122192 
z"/>
<path fill="#949494" opacity="1.000000" stroke="none" 
	d="
M405.685913,245.893188 
	C409.897919,246.249802 413.359222,246.509491 416.842316,246.770798 
	C411.462097,251.433243 408.516418,251.131607 397.213928,244.103149 
	C400.731476,244.874481 402.833374,245.335388 405.685913,245.893188 
z"/>
<path fill="#949494" opacity="1.000000" stroke="none" 
	d="
M1102.583252,891.205872 
	C1102.403687,889.362061 1102.513428,888.132019 1102.674438,886.328796 
	C1107.928223,888.156616 1110.191895,891.373962 1110.757935,896.777344 
	C1106.322021,897.198792 1104.961182,893.911194 1102.583252,891.205872 
z"/>
<path fill="#949494" opacity="1.000000" stroke="none" 
	d="
M2249.119629,107.821190 
	C2253.460693,108.468292 2257.298096,109.247459 2261.125000,110.076294 
	C2261.299316,110.114044 2261.376953,110.599297 2261.810791,111.578819 
	C2256.341309,113.722618 2252.047607,112.745705 2249.119629,107.821190 
z"/>
<path fill="#949494" opacity="1.000000" stroke="none" 
	d="
M1415.883057,430.489441 
	C1414.707275,429.976379 1414.140625,429.665314 1413.563599,429.348511 
	C1419.913696,426.248077 1420.599487,426.366943 1425.734741,431.695282 
	C1422.256958,433.761658 1419.404419,431.848358 1415.883057,430.489441 
z"/>
<path fill="#949494" opacity="1.000000" stroke="none" 
	d="
M1651.396362,208.029251 
	C1647.329346,207.528656 1643.383911,209.535431 1640.376709,205.097427 
	C1646.095947,201.946198 1650.819946,202.792740 1657.484253,207.169662 
	C1654.363770,207.669434 1653.271606,207.844345 1651.396362,208.029251 
z"/>
<path fill="#949494" opacity="1.000000" stroke="none" 
	d="
M2112.888672,1434.895752 
	C2113.710449,1438.972534 2114.411133,1442.300781 2115.436035,1447.169434 
	C2108.314453,1441.750977 2109.588623,1436.057495 2111.638672,1430.140747 
	C2112.015137,1431.476196 2112.391602,1432.811646 2112.888672,1434.895752 
z"/>
<path fill="#949494" opacity="1.000000" stroke="none" 
	d="
M2399.936279,1320.055176 
	C2406.393066,1319.159668 2406.549072,1319.324951 2407.853027,1329.624268 
	C2404.427246,1325.782349 2402.141113,1323.218872 2399.936279,1320.055176 
z"/>
<path fill="#949494" opacity="1.000000" stroke="none" 
	d="
M2154.371094,878.379578 
	C2149.417236,880.637695 2145.736328,879.800598 2143.505371,875.738647 
	C2143.872559,874.871216 2144.239746,874.003784 2144.606689,873.136353 
	C2147.912109,874.683777 2151.217529,876.231262 2154.371094,878.379578 
z"/>
<path fill="#949494" opacity="1.000000" stroke="none" 
	d="
M73.242538,493.661133 
	C73.422073,488.112946 73.573875,488.002899 82.288414,486.833710 
	C81.203018,491.565796 77.447227,492.577271 73.242538,493.661133 
z"/>
<path fill="#949494" opacity="1.000000" stroke="none" 
	d="
M1879.979736,178.485138 
	C1878.530273,183.849686 1875.182739,182.321945 1871.345093,181.596268 
	C1872.694336,175.544861 1875.626465,175.330994 1879.979736,178.485138 
z"/>
<path fill="#949494" opacity="1.000000" stroke="none" 
	d="
M1376.348145,804.964355 
	C1374.188110,807.337830 1372.211792,809.133545 1370.235474,810.929321 
	C1369.529297,810.340149 1368.823120,809.750977 1368.116943,809.161804 
	C1370.069702,806.183289 1372.022461,803.204773 1374.978027,798.696777 
	C1375.806885,801.731934 1376.169434,803.059326 1376.348145,804.964355 
z"/>
<path fill="#949494" opacity="1.000000" stroke="none" 
	d="
M1633.747314,698.077759 
	C1629.639526,697.521179 1627.486328,695.796204 1628.101807,691.103882 
	C1632.597168,691.704834 1636.822144,691.592590 1633.747314,698.077759 
z"/>
<path fill="#949494" opacity="1.000000" stroke="none" 
	d="
M615.898254,1549.146240 
	C617.389099,1552.197632 618.573975,1554.738892 619.983826,1557.762695 
	C613.877991,1555.638062 612.022217,1552.995239 613.055176,1548.469849 
	C613.085022,1548.339111 614.710693,1548.572510 615.898254,1549.146240 
z"/>
<path fill="#949494" opacity="1.000000" stroke="none" 
	d="
M365.799438,1123.403320 
	C361.436432,1121.380981 361.281250,1118.863037 364.366028,1115.717896 
	C366.670013,1116.846680 368.857330,1117.918213 372.028839,1119.471924 
	C369.772797,1121.009033 368.101593,1122.147705 365.799438,1123.403320 
z"/>
<path fill="#949494" opacity="1.000000" stroke="none" 
	d="
M2332.683594,218.376129 
	C2334.053711,217.941971 2334.911865,217.787537 2336.924805,217.425308 
	C2334.005859,223.076920 2330.757568,225.629730 2323.245117,223.702209 
	C2327.064697,221.542862 2329.618164,220.099365 2332.683594,218.376129 
z"/>
<path fill="#949494" opacity="1.000000" stroke="none" 
	d="
M226.236481,443.085754 
	C219.703583,447.255005 218.637161,442.094635 216.188873,439.259613 
	C216.594208,438.523773 216.999542,437.787933 217.404877,437.052094 
	C220.430115,438.882751 223.455353,440.713409 226.236481,443.085754 
z"/>
<path fill="#949494" opacity="1.000000" stroke="none" 
	d="
M1535.954346,1655.831421 
	C1537.785400,1659.924316 1540.450928,1663.650757 1534.022339,1666.026733 
	C1532.433838,1661.887817 1529.061523,1657.970947 1535.954346,1655.831421 
z"/>
<path fill="#949494" opacity="1.000000" stroke="none" 
	d="
M641.578186,550.697998 
	C637.839966,549.605774 636.651794,547.425964 636.746887,544.138367 
	C643.692261,545.360535 644.445618,546.361633 641.578186,550.697998 
z"/>
<path fill="#949494" opacity="1.000000" stroke="none" 
	d="
M442.708893,166.411514 
	C445.033264,164.697891 447.091614,163.545578 449.149994,162.393265 
	C449.625214,162.937866 450.100403,163.482452 450.575623,164.027054 
	C448.733307,166.280411 446.890991,168.533783 444.249664,171.764450 
	C443.395111,169.498199 442.919006,168.235504 442.708893,166.411514 
z"/>
<path fill="#949494" opacity="1.000000" stroke="none" 
	d="
M144.924561,1211.958008 
	C146.782074,1209.270142 148.242249,1207.045898 152.543152,1209.905029 
	C149.905197,1212.681030 147.516983,1215.194336 145.128754,1217.707520 
	C144.637527,1217.410156 144.146286,1217.112793 143.655060,1216.815430 
	C143.951797,1215.367310 144.248520,1213.919189 144.924561,1211.958008 
z"/>
<path fill="#949494" opacity="1.000000" stroke="none" 
	d="
M970.484436,1533.969238 
	C968.218872,1537.640137 966.093445,1536.647949 965.787170,1533.750122 
	C965.520813,1531.228516 966.986145,1528.524170 967.686218,1525.900513 
	C968.398315,1525.979370 969.110413,1526.058228 969.822510,1526.137085 
	C970.084900,1528.552612 970.347229,1530.968140 970.484436,1533.969238 
z"/>
<path fill="#949494" opacity="1.000000" stroke="none" 
	d="
M867.549377,158.565033 
	C863.083679,159.551025 858.939514,159.827438 854.015015,160.155914 
	C859.180420,154.504440 861.488281,154.242905 867.549377,158.565033 
z"/>
<path fill="#949494" opacity="1.000000" stroke="none" 
	d="
M1346.370850,566.468506 
	C1345.481812,564.819641 1344.914795,563.728455 1344.140137,562.237610 
	C1350.278320,563.446655 1350.278320,563.446655 1351.319580,573.321899 
	C1349.051514,570.235535 1347.872314,568.630920 1346.370850,566.468506 
z"/>
<path fill="#949494" opacity="1.000000" stroke="none" 
	d="
M1783.841553,567.851135 
	C1783.433960,565.033691 1782.928467,562.130554 1786.343140,562.591309 
	C1787.406982,562.734863 1788.996460,566.084778 1788.700928,567.657898 
	C1788.156006,570.558289 1786.106201,571.230774 1783.841553,567.851135 
z"/>
<path fill="#949494" opacity="1.000000" stroke="none" 
	d="
M28.835850,1046.533081 
	C29.384220,1051.783203 25.701580,1051.709229 21.572392,1052.662476 
	C20.509834,1046.265625 24.832838,1046.697754 28.835850,1046.533081 
z"/>
<path fill="#949494" opacity="1.000000" stroke="none" 
	d="
M287.777374,69.953430 
	C285.411072,69.666222 283.711670,69.261848 282.012268,68.857475 
	C282.037750,68.305069 282.063232,67.752663 282.088684,67.200256 
	C286.024994,66.531181 289.961273,65.862099 293.897583,65.193024 
	C294.096375,65.571190 294.295166,65.949356 294.493958,66.327515 
	C292.477417,67.497101 290.460846,68.666687 287.777374,69.953430 
z"/>
<path fill="#949494" opacity="1.000000" stroke="none" 
	d="
M1048.912842,73.402237 
	C1046.430786,78.200485 1043.232788,76.657387 1038.503418,75.448715 
	C1042.558960,72.756966 1045.683350,72.447083 1048.912842,73.402237 
z"/>
<path fill="#949494" opacity="1.000000" stroke="none" 
	d="
M1528.485962,734.398071 
	C1526.621338,733.285828 1525.305298,732.322754 1522.767456,730.465698 
	C1526.538452,730.465698 1529.010498,730.465698 1532.637329,730.465698 
	C1531.004395,732.315491 1530.019409,733.431335 1528.485962,734.398071 
z"/>
<path fill="#949494" opacity="1.000000" stroke="none" 
	d="
M2377.902832,1809.549927 
	C2379.098877,1811.697876 2379.968262,1813.329834 2381.220703,1815.681519 
	C2374.970703,1816.717773 2374.849609,1812.363403 2372.748535,1808.082275 
	C2375.083740,1808.542603 2376.329834,1808.788208 2377.902832,1809.549927 
z"/>
<path fill="#949494" opacity="1.000000" stroke="none" 
	d="
M2360.781250,380.358521 
	C2360.521240,376.504700 2360.521240,376.504700 2367.301758,377.712280 
	C2365.316406,378.616364 2363.330811,379.520447 2360.781250,380.358521 
z"/>
<path fill="#949494" opacity="1.000000" stroke="none" 
	d="
M162.039154,731.086853 
	C164.002106,729.502625 165.712860,728.393127 167.423630,727.283630 
	C167.814606,727.729187 168.205566,728.174805 168.596542,728.620422 
	C166.843643,730.734497 165.090729,732.848572 162.435898,736.050476 
	C162.102997,733.747681 161.944977,732.654602 162.039154,731.086853 
z"/>
<path fill="#949494" opacity="1.000000" stroke="none" 
	d="
M1587.852783,567.864746 
	C1586.134521,565.506836 1585.741577,563.396240 1588.739746,563.522949 
	C1593.030640,563.704285 1593.402100,566.719604 1592.801270,571.429504 
	C1590.655518,569.959290 1589.459961,569.140076 1587.852783,567.864746 
z"/>
<path fill="#949494" opacity="1.000000" stroke="none" 
	d="
M2391.208984,955.557495 
	C2390.843262,953.991577 2390.977539,952.736450 2391.112061,951.481323 
	C2393.283447,951.920166 2395.454590,952.359070 2397.822266,952.837646 
	C2397.414307,958.563232 2394.439941,956.929443 2391.208984,955.557495 
z"/>
<path fill="#949494" opacity="1.000000" stroke="none" 
	d="
M1833.654785,1430.923828 
	C1835.088867,1428.598389 1836.216187,1426.813599 1837.343384,1425.028809 
	C1839.007568,1429.152710 1838.551270,1432.302002 1834.923218,1434.317749 
	C1834.398071,1433.366699 1833.873047,1432.415527 1833.654785,1430.923828 
z"/>
<path fill="#949494" opacity="1.000000" stroke="none" 
	d="
M2241.613770,341.900391 
	C2239.132324,344.069122 2239.129150,344.087128 2231.519287,340.032135 
	C2234.823730,340.271027 2236.143311,340.223572 2237.393066,340.496643 
	C2238.658203,340.773010 2239.854492,341.366486 2241.613770,341.900391 
z"/>
<path fill="#949494" opacity="1.000000" stroke="none" 
	d="
M383.314636,792.664062 
	C386.436920,790.599915 389.463593,789.219543 393.834076,787.226318 
	C390.628540,793.945068 390.628540,793.945068 383.314636,792.664062 
z"/>
<path fill="#949494" opacity="1.000000" stroke="none" 
	d="
M2374.612061,217.116119 
	C2373.368652,215.903015 2372.612793,214.994049 2371.856934,214.085083 
	C2372.855713,213.543640 2374.331055,212.290985 2374.769775,212.585052 
	C2376.566406,213.789459 2378.046875,215.465652 2379.643799,216.968140 
	C2379.240723,217.486038 2378.837646,218.003937 2378.434814,218.521835 
	C2377.322998,218.154633 2376.211426,217.787430 2374.612061,217.116119 
z"/>
<path fill="#949494" opacity="1.000000" stroke="none" 
	d="
M2220.568848,1016.401917 
	C2220.161621,1015.016418 2220.066895,1014.087891 2219.972168,1013.159424 
	C2220.384766,1012.885498 2220.797607,1012.611633 2221.210205,1012.337708 
	C2223.056641,1014.714600 2224.903320,1017.091492 2226.749756,1019.468445 
	C2226.195801,1019.975342 2225.641602,1020.482239 2225.087646,1020.989136 
	C2223.685547,1019.612366 2222.283203,1018.235657 2220.568848,1016.401917 
z"/>
<path fill="#949494" opacity="1.000000" stroke="none" 
	d="
M1372.581177,256.392426 
	C1371.174194,259.475342 1368.788330,259.921875 1365.173462,258.558502 
	C1367.109863,254.730911 1369.765381,255.904724 1372.581177,256.392426 
z"/>
<path fill="#949494" opacity="1.000000" stroke="none" 
	d="
M569.170776,1083.068115 
	C567.023254,1081.189209 565.421936,1079.327271 563.820618,1077.465210 
	C568.563171,1077.045898 570.988159,1078.548706 569.170776,1083.068115 
z"/>
<path fill="#949494" opacity="1.000000" stroke="none" 
	d="
M391.495361,82.094040 
	C392.511353,83.380417 392.765320,84.610832 393.019287,85.841248 
	C390.076172,85.985893 387.133087,86.130547 384.189972,86.275200 
	C384.102814,85.413071 384.015625,84.550934 383.928467,83.688805 
	C386.196716,83.138565 388.464996,82.588318 391.495361,82.094040 
z"/>
<path fill="#949494" opacity="1.000000" stroke="none" 
	d="
M2374.738525,65.642746 
	C2374.895508,64.622818 2375.411865,63.704010 2375.709961,63.769958 
	C2377.705322,64.211143 2379.653809,64.862251 2381.617676,65.445244 
	C2381.284912,66.305031 2380.773926,67.938072 2380.645996,67.908607 
	C2378.733398,67.467964 2376.871094,66.807838 2374.738525,65.642746 
z"/>
<path fill="#949494" opacity="1.000000" stroke="none" 
	d="
M1815.874023,477.359741 
	C1816.527710,482.347046 1813.522095,483.138885 1809.183228,484.076141 
	C1809.918823,479.594696 1811.136841,476.883789 1815.874023,477.359741 
z"/>
<path fill="#949494" opacity="1.000000" stroke="none" 
	d="
M146.168335,771.298096 
	C146.290649,773.019348 146.290649,774.251404 146.290649,777.901428 
	C144.039703,774.036438 142.930038,772.131104 141.820374,770.225708 
	C142.136490,769.849426 142.452606,769.473083 142.768723,769.096741 
	C143.861160,769.667480 144.953598,770.238159 146.168335,771.298096 
z"/>
<path fill="#949494" opacity="1.000000" stroke="none" 
	d="
M2210.094238,377.404602 
	C2211.309814,377.113495 2211.921875,377.107697 2212.533936,377.101929 
	C2211.399658,379.052277 2210.657715,381.536835 2208.990234,382.762024 
	C2207.909424,383.556305 2205.477051,382.511841 2203.641602,380.657715 
	C2205.591309,379.668457 2207.541260,378.679199 2210.094238,377.404602 
z"/>
<path fill="#949494" opacity="1.000000" stroke="none" 
	d="
M874.026978,621.808350 
	C873.022095,616.645020 876.440735,616.600098 879.978210,615.561279 
	C880.685364,620.673340 878.879578,622.602844 874.026978,621.808350 
z"/>
<path fill="#949494" opacity="1.000000" stroke="none" 
	d="
M1258.445923,1634.956543 
	C1264.514893,1632.237183 1262.774658,1639.105103 1265.835693,1640.496948 
	C1261.182129,1641.962524 1259.936279,1638.580933 1258.445923,1634.956543 
z"/>
<path fill="#949494" opacity="1.000000" stroke="none" 
	d="
M1809.956055,744.368652 
	C1809.115723,740.093628 1809.115723,740.093628 1816.169434,740.321838 
	C1813.468994,742.303894 1812.003174,743.379761 1809.956055,744.368652 
z"/>
<path fill="#949494" opacity="1.000000" stroke="none" 
	d="
M209.096161,1114.135742 
	C207.302155,1116.511230 205.807861,1118.344971 204.313583,1120.178833 
	C203.113861,1115.694214 204.844666,1113.127075 208.230591,1111.624390 
	C208.311661,1111.588501 208.993973,1112.907227 209.096161,1114.135742 
z"/>
<path fill="#949494" opacity="1.000000" stroke="none" 
	d="
M39.194084,110.720016 
	C37.735394,103.415466 42.093147,106.128700 45.991776,106.002022 
	C44.706738,109.763321 43.592892,112.165764 39.194084,110.720016 
z"/>
<path fill="#949494" opacity="1.000000" stroke="none" 
	d="
M1222.572266,1512.111816 
	C1224.426025,1509.422485 1226.127197,1507.342407 1227.828369,1505.262207 
	C1228.353516,1505.739380 1228.878540,1506.216675 1229.403687,1506.693848 
	C1228.324097,1509.899902 1227.807007,1513.645142 1222.572266,1512.111816 
z"/>
<path fill="#949494" opacity="1.000000" stroke="none" 
	d="
M647.046387,130.180511 
	C651.068787,132.490768 652.411377,134.706223 647.131836,135.642807 
	C645.591248,135.916153 643.745728,134.470535 640.676697,133.287186 
	C643.399597,131.746170 644.882690,130.906784 647.046387,130.180511 
z"/>
<path fill="#949494" opacity="1.000000" stroke="none" 
	d="
M1100.360840,682.708862 
	C1105.058594,680.239258 1106.806030,682.018311 1106.856689,687.116516 
	C1103.218384,687.653320 1101.105713,686.633118 1100.360840,682.708862 
z"/>
<path fill="#949494" opacity="1.000000" stroke="none" 
	d="
M175.160675,1675.487793 
	C173.669586,1676.909668 172.531036,1677.841797 170.850876,1679.217529 
	C171.407196,1673.831543 171.407196,1673.831543 176.164841,1669.844604 
	C175.883835,1672.067017 175.698502,1673.532593 175.160675,1675.487793 
z"/>
<path fill="#949494" opacity="1.000000" stroke="none" 
	d="
M396.456970,724.137390 
	C395.568146,721.184692 395.529907,718.814758 398.964508,719.019958 
	C399.871490,719.074097 401.488586,720.693176 401.403870,721.436890 
	C401.122070,723.910522 399.886108,725.817871 396.456970,724.137390 
z"/>
<path fill="#949494" opacity="1.000000" stroke="none" 
	d="
M644.843445,823.323181 
	C642.580444,827.926758 642.580444,827.926758 637.751648,821.753296 
	C640.768799,822.210999 642.659058,822.497742 644.843445,823.323181 
z"/>
<path fill="#949494" opacity="1.000000" stroke="none" 
	d="
M2389.310547,813.985901 
	C2388.694092,815.122620 2387.250244,816.368286 2387.052979,816.194946 
	C2385.179199,814.549011 2383.517334,812.662109 2381.278320,810.300110 
	C2386.053955,808.327148 2387.171143,811.711365 2389.310547,813.985901 
z"/>
<path fill="#949494" opacity="1.000000" stroke="none" 
	d="
M2150.197754,726.521362 
	C2148.799805,725.137756 2147.833984,724.014038 2146.568604,722.541504 
	C2152.067627,722.300354 2152.067627,722.300354 2150.197754,726.521362 
z"/>
<path fill="#949494" opacity="1.000000" stroke="none" 
	d="
M1995.716553,117.685043 
	C1999.041504,118.970245 2000.778076,120.596458 1999.072876,124.411407 
	C1995.691895,123.811943 1993.958496,121.457893 1992.642212,118.576096 
	C1993.466309,118.230331 1994.290283,117.884552 1995.716553,117.685043 
z"/>
<path fill="#949494" opacity="1.000000" stroke="none" 
	d="
M1456.105103,116.047226 
	C1457.220703,117.106110 1458.103516,119.009850 1458.050049,119.036507 
	C1454.550781,120.782303 1451.394653,120.956367 1448.926514,116.016068 
	C1451.513550,116.016068 1453.474487,116.016068 1456.105103,116.047226 
z"/>
<path fill="#949494" opacity="1.000000" stroke="none" 
	d="
M1374.631348,607.170776 
	C1377.823853,605.894287 1379.194702,607.400818 1378.171875,609.469238 
	C1377.500732,610.826233 1374.868042,611.213196 1373.113892,612.034546 
	C1373.438599,610.510559 1373.763306,608.986633 1374.631348,607.170776 
z"/>
<path fill="#949494" opacity="1.000000" stroke="none" 
	d="
M2253.744629,466.405823 
	C2252.363281,466.175262 2251.554688,465.797028 2249.871094,465.009613 
	C2252.519043,463.187531 2254.597900,461.757202 2256.676514,460.326904 
	C2257.034424,460.668823 2257.392334,461.010742 2257.750244,461.352661 
	C2256.605713,462.987823 2255.461182,464.622955 2253.744629,466.405823 
z"/>
<path fill="#949494" opacity="1.000000" stroke="none" 
	d="
M1147.351562,494.363495 
	C1146.459595,497.706818 1145.039062,500.563416 1143.235352,504.190826 
	C1141.884888,497.333557 1141.884888,497.333557 1147.351562,494.363495 
z"/>
<path fill="#949494" opacity="1.000000" stroke="none" 
	d="
M293.969727,357.605621 
	C291.246674,358.811707 291.246674,358.811707 288.500641,355.137360 
	C290.203278,355.825134 291.905914,356.512909 293.969727,357.605621 
z"/>
<path fill="#949494" opacity="1.000000" stroke="none" 
	d="
M2377.572998,1064.664795 
	C2376.867432,1063.409912 2376.601074,1062.416870 2376.334961,1061.423828 
	C2378.190674,1062.228271 2380.046143,1063.032837 2381.901855,1063.837280 
	C2381.729736,1064.376343 2381.557617,1064.915405 2381.385498,1065.454346 
	C2380.260986,1065.278442 2379.136719,1065.102661 2377.572998,1064.664795 
z"/>
<path fill="#949494" opacity="1.000000" stroke="none" 
	d="
M182.895538,319.524750 
	C185.339264,319.207001 187.851761,319.509979 190.364258,319.812927 
	C187.376373,323.336090 185.056915,322.540802 182.895538,319.524750 
z"/>
<path fill="#949494" opacity="1.000000" stroke="none" 
	d="
M733.395264,499.335968 
	C731.584167,502.220703 729.495422,502.352142 728.825562,499.914642 
	C728.403442,498.378601 730.099609,496.260437 730.845581,494.403381 
	C731.801392,495.832428 732.757263,497.261505 733.395264,499.335968 
z"/>
<path fill="#949494" opacity="1.000000" stroke="none" 
	d="
M580.290527,100.576477 
	C579.721375,102.006638 579.052246,102.811501 578.383057,103.616364 
	C577.558533,102.304680 576.211853,101.047806 576.066711,99.664818 
	C575.939453,98.452728 577.161072,97.099060 577.786743,95.807922 
	C578.587952,97.189003 579.389221,98.570084 580.290527,100.576477 
z"/>
<path fill="#949494" opacity="1.000000" stroke="none" 
	d="
M914.569641,496.746277 
	C916.445618,496.107208 917.908447,495.915253 921.777588,495.407532 
	C918.412659,498.879791 916.666504,500.681610 914.920410,502.483429 
	C914.449463,502.202362 913.978577,501.921326 913.507690,501.640289 
	C913.723938,500.157990 913.940186,498.675659 914.569641,496.746277 
z"/>
<path fill="#949494" opacity="1.000000" stroke="none" 
	d="
M874.161743,587.008423 
	C873.480408,584.476318 873.934448,582.917480 876.286072,584.371887 
	C877.383728,585.050720 877.739990,586.928528 878.432251,588.262817 
	C877.085144,587.991516 875.737976,587.720154 874.161743,587.008423 
z"/>
<path fill="#949494" opacity="1.000000" stroke="none" 
	d="
M1415.456055,983.969360 
	C1417.600830,983.737610 1419.175171,983.737610 1421.308105,983.737610 
	C1417.522949,987.997437 1417.522949,987.997437 1415.456055,983.969360 
z"/>
<path fill="#949494" opacity="1.000000" stroke="none" 
	d="
M563.826660,305.597015 
	C562.814758,303.307861 562.424744,301.285889 561.845581,298.283051 
	C567.055237,300.490356 568.860657,302.440155 563.826660,305.597015 
z"/>
<path fill="#949494" opacity="1.000000" stroke="none" 
	d="
M55.216419,77.173561 
	C56.608936,78.549637 57.521294,79.606445 59.506115,81.905525 
	C54.380409,81.476624 51.606346,80.992943 52.509388,76.365791 
	C52.545216,76.182205 52.982452,75.889229 53.104416,75.942245 
	C53.673061,76.189445 54.196590,76.540428 55.216419,77.173561 
z"/>
<path fill="#949494" opacity="1.000000" stroke="none" 
	d="
M1882.885742,425.632019 
	C1881.471069,425.861938 1880.532837,425.861938 1877.942383,425.861938 
	C1880.832153,423.574738 1882.606323,422.170593 1884.380493,420.766479 
	C1884.772583,421.096924 1885.164673,421.427399 1885.556763,421.757843 
	C1884.825195,422.972595 1884.093628,424.187347 1882.885742,425.632019 
z"/>
<path fill="#040404" opacity="1.000000" stroke="none" 
	d="
M298.714417,1815.334351 
	C298.584198,1813.495117 298.705841,1812.292725 298.934570,1810.031982 
	C303.280487,1813.433350 302.184937,1817.364136 301.747864,1821.255615 
	C300.820679,1819.494141 299.893463,1817.732666 298.714417,1815.334351 
z"/>
<path fill="#949494" opacity="1.000000" stroke="none" 
	d="
M2038.559326,645.136108 
	C2039.994263,643.971558 2041.521973,643.444031 2043.049561,642.916504 
	C2043.108276,644.399353 2043.166870,645.882263 2043.225464,647.365112 
	C2041.700928,646.834473 2040.176514,646.303833 2038.559326,645.136108 
z"/>
<path fill="#949494" opacity="1.000000" stroke="none" 
	d="
M693.248535,355.814941 
	C695.066895,352.126740 696.992432,353.917450 698.948486,356.961578 
	C697.163452,356.726074 695.378418,356.490570 693.248535,355.814941 
z"/>
<path fill="#949494" opacity="1.000000" stroke="none" 
	d="
M1872.137451,54.123238 
	C1874.945923,57.457214 1873.730469,59.619671 1870.328003,62.065514 
	C1869.337646,58.673622 1868.886230,56.158531 1872.137451,54.123238 
z"/>
<path fill="#949494" opacity="1.000000" stroke="none" 
	d="
M2189.875000,1314.593018 
	C2192.289062,1314.809814 2194.211914,1315.344482 2197.796387,1316.341187 
	C2193.025635,1318.664551 2191.031494,1317.421509 2189.875000,1314.593018 
z"/>
<path fill="#949494" opacity="1.000000" stroke="none" 
	d="
M673.786072,1310.357544 
	C673.911072,1312.589111 673.826660,1314.157227 673.742249,1315.725220 
	C673.160889,1315.834595 672.579590,1315.943848 671.998230,1316.053223 
	C671.367676,1313.628662 670.737061,1311.204102 669.733093,1307.344116 
	C672.058838,1308.765991 672.817749,1309.229980 673.786072,1310.357544 
z"/>
<path fill="#949494" opacity="1.000000" stroke="none" 
	d="
M235.345459,1433.861816 
	C235.977280,1430.140137 238.522583,1430.641724 241.478500,1432.372559 
	C239.610291,1432.953735 237.742096,1433.534912 235.345459,1433.861816 
z"/>
<path fill="#949494" opacity="1.000000" stroke="none" 
	d="
M2138.203613,467.307068 
	C2136.648193,467.454742 2135.651611,467.557495 2134.692139,467.413269 
	C2134.093750,467.323364 2133.551270,466.860443 2132.761230,465.156555 
	C2134.950195,465.061707 2137.139404,464.966858 2139.328613,464.872009 
	C2139.145020,465.633911 2138.961426,466.395844 2138.203613,467.307068 
z"/>
<path fill="#949494" opacity="1.000000" stroke="none" 
	d="
M177.836853,165.759796 
	C176.026138,167.615768 174.263153,168.790863 172.021545,170.284958 
	C173.143219,165.162933 173.143219,165.162933 177.836853,165.759796 
z"/>
<path fill="#949494" opacity="1.000000" stroke="none" 
	d="
M307.669922,286.552460 
	C304.951874,287.299957 302.747467,287.650085 300.543030,288.000183 
	C300.448303,287.626801 300.353546,287.253448 300.258789,286.880066 
	C302.696259,286.058441 305.128815,285.221436 307.579102,284.440063 
	C307.812866,284.365509 308.401764,284.628204 308.407104,284.752411 
	C308.427063,285.215912 308.272614,285.686890 307.669922,286.552460 
z"/>
<path fill="#040404" opacity="1.000000" stroke="none" 
	d="
M2240.029785,1962.078613 
	C2240.668945,1960.494385 2241.263672,1959.578491 2241.858154,1958.662598 
	C2242.455566,1958.829102 2243.052979,1958.995605 2243.650391,1959.161987 
	C2243.430664,1961.567749 2243.211182,1963.973511 2242.991455,1966.379272 
	C2242.313721,1966.428467 2241.635742,1966.477783 2240.958008,1966.526978 
	C2240.633789,1965.266968 2240.309814,1964.006958 2240.029785,1962.078613 
z"/>
<path fill="#949494" opacity="1.000000" stroke="none" 
	d="
M1383.349976,1748.017090 
	C1382.949829,1749.593872 1382.280762,1750.781982 1381.611816,1751.970093 
	C1380.976685,1751.444580 1380.341675,1750.919067 1379.706543,1750.393555 
	C1380.831299,1749.471802 1381.956177,1748.550171 1383.349976,1748.017090 
z"/>
<path fill="#949494" opacity="1.000000" stroke="none" 
	d="
M955.725647,1704.043579 
	C955.832153,1702.591187 956.252808,1701.559570 956.673340,1700.527832 
	C957.382324,1701.052979 958.091309,1701.578125 958.800354,1702.103271 
	C957.880188,1702.890259 956.959961,1703.677368 955.725647,1704.043579 
z"/>
<path fill="#949494" opacity="1.000000" stroke="none" 
	d="
M642.635498,365.452362 
	C639.185059,365.582977 637.368713,364.444885 638.154785,359.697571 
	C640.291077,362.037750 641.704102,363.585571 642.635498,365.452362 
z"/>
<path fill="#949494" opacity="1.000000" stroke="none" 
	d="
M1798.094727,1721.827637 
	C1798.851440,1720.300293 1799.595337,1719.411987 1800.339233,1718.523682 
	C1800.818115,1718.702271 1801.297119,1718.880981 1801.776001,1719.059570 
	C1801.398315,1720.894043 1801.020752,1722.728638 1800.643066,1724.563110 
	C1799.789307,1723.864380 1798.935547,1723.165649 1798.094727,1721.827637 
z"/>
<path fill="#040404" opacity="1.000000" stroke="none" 
	d="
M1782.124512,323.962677 
	C1782.925537,322.577026 1783.725952,321.838135 1784.526367,321.099243 
	C1784.533569,322.995789 1784.540649,324.892303 1784.547729,326.788788 
	C1783.739868,326.062317 1782.931885,325.335846 1782.124512,323.962677 
z"/>
<path fill="#040404" opacity="1.000000" stroke="none" 
	d="
M176.278473,1761.254883 
	C176.798050,1759.447876 177.485779,1758.285889 178.173523,1757.123901 
	C178.696350,1758.432007 179.219162,1759.740234 179.741989,1761.048340 
	C178.643539,1761.332153 177.545074,1761.615967 176.278473,1761.254883 
z"/>
<path fill="#949494" opacity="1.000000" stroke="none" 
	d="
M2282.104492,225.835007 
	C2281.106689,224.828720 2280.631104,223.888870 2280.155273,222.949036 
	C2281.307861,223.146881 2282.460205,223.344727 2283.612793,223.542542 
	C2283.283936,224.328812 2282.955322,225.115128 2282.104492,225.835007 
z"/>
<path fill="#949494" opacity="1.000000" stroke="none" 
	d="
M655.763489,1860.896240 
	C655.577332,1862.861572 655.171936,1864.168091 654.554321,1866.158569 
	C651.474976,1860.085327 651.474976,1860.085327 655.763489,1860.896240 
z"/>
<path fill="#949494" opacity="1.000000" stroke="none" 
	d="
M1095.420410,1890.264160 
	C1096.867920,1890.871338 1097.952148,1891.825684 1099.036255,1892.779907 
	C1098.575439,1893.156860 1098.114502,1893.533691 1097.653687,1893.910645 
	C1096.788086,1892.810913 1095.922485,1891.711182 1095.420410,1890.264160 
z"/>
<path fill="#949494" opacity="1.000000" stroke="none" 
	d="
M1078.186279,892.130127 
	C1079.841431,892.701721 1080.737915,893.338074 1081.634399,893.974487 
	C1080.351562,894.543884 1079.068604,895.113220 1077.785645,895.682495 
	C1077.666260,894.519958 1077.546875,893.357483 1078.186279,892.130127 
z"/>
<path fill="#040404" opacity="1.000000" stroke="none" 
	d="
M1100.732544,1054.847168 
	C1103.223511,1053.247192 1105.614868,1052.009644 1108.013062,1051.996338 
	C1131.998291,1051.862061 1155.984863,1051.901855 1179.970703,1051.974731 
	C1182.949341,1051.983765 1186.001221,1052.144775 1188.888184,1052.806641 
	C1194.316040,1054.051025 1197.867676,1057.553711 1197.931152,1063.266235 
	C1198.127197,1080.916626 1198.145996,1098.571533 1197.972778,1116.221924 
	C1197.916992,1121.912964 1194.586426,1125.436157 1188.924316,1126.528320 
	C1186.643555,1126.968140 1184.339111,1127.596436 1182.043945,1127.602905 
	C1155.407837,1127.678467 1128.771484,1127.651245 1100.877930,1127.651245 
	C1100.328369,1115.493286 1100.698120,1103.613281 1100.633179,1091.756592 
	C1100.567627,1079.764038 1100.629883,1067.770630 1100.732544,1054.847168 
z"/>
<path fill="#040404" opacity="1.000000" stroke="none" 
	d="
M1326.020020,1088.008789 
	C1326.019775,1079.363892 1325.898071,1071.711914 1326.051880,1064.065430 
	C1326.221680,1055.620972 1328.937134,1052.554199 1337.263306,1052.087891 
	C1344.558594,1051.679565 1351.891357,1051.915649 1359.207642,1051.910278 
	C1375.837036,1051.898193 1392.467407,1051.812622 1409.095703,1051.949341 
	C1421.239502,1052.049316 1423.865967,1054.717896 1423.905518,1066.507080 
	C1423.958984,1082.471191 1423.993896,1098.436157 1423.888550,1114.399658 
	C1423.826172,1123.858032 1420.948608,1127.418213 1411.637085,1127.542725 
	C1387.030640,1127.871582 1362.413452,1127.879272 1337.807983,1127.514160 
	C1328.979370,1127.383057 1326.177490,1123.811035 1326.044800,1114.945801 
	C1325.915405,1106.300415 1326.018799,1097.651611 1326.020020,1088.008789 
z"/>
</svg>