<svg version="1.1" id="Layer_1" xmlns="http://www.w3.org/2000/svg" xmlns:xlink="http://www.w3.org/1999/xlink" x="0px" y="0px"
	 width="100%" viewBox="0 0 1042 1042" enable-background="new 0 0 1042 1042" xml:space="preserve">
<path fill="#000000" opacity="1.000000" stroke="none" 
	d="
M560.000000,1043.000000 
	C373.355591,1043.000000 187.211212,1043.000000 1.033406,1043.000000 
	C1.033406,695.730469 1.033406,348.460968 1.033406,1.095731 
	C348.227936,1.095731 695.455872,1.095731 1042.841919,1.095731 
	C1042.841919,348.333282 1042.841919,695.666626 1042.841919,1043.000000 
	C882.127197,1043.000000 721.313599,1043.000000 560.000000,1043.000000 
M462.207458,526.931763 
	C477.063263,522.218811 481.572388,513.238098 481.864288,502.256073 
	C482.337921,484.435638 482.447693,466.577393 481.831635,448.765533 
	C481.389313,435.975708 475.925171,427.367493 462.987030,424.162323 
	C455.675201,422.350983 447.940613,421.599518 440.385681,421.529297 
	C409.721924,421.244202 379.054047,421.404266 348.387665,421.417603 
	C346.973694,421.418213 345.559784,421.587860 344.333130,421.666718 
	C344.333130,457.736481 344.333130,493.311890 344.333130,528.968994 
	C379.161499,528.968994 413.652893,529.039246 448.143219,528.881836 
	C452.558929,528.861694 456.969208,527.656433 462.207458,526.931763 
M569.032715,461.500610 
	C569.033875,474.989014 568.950134,488.478088 569.060730,501.965576 
	C569.165039,514.683655 574.798706,522.956665 585.963684,526.505188 
	C589.859131,527.743225 594.024536,528.754272 598.074402,528.783508 
	C625.048218,528.978333 652.037659,529.398560 678.994812,528.698975 
	C698.069336,528.203979 707.592163,518.750916 707.838074,501.862335 
	C708.097412,484.048126 708.077087,466.224854 707.840759,448.410004 
	C707.659668,434.750000 702.005615,426.861359 689.526123,423.562378 
	C683.531738,421.977783 677.098267,421.572418 670.853943,421.502502 
	C649.375122,421.261902 627.891052,421.294342 606.411072,421.475555 
	C600.643494,421.524200 594.829834,422.143616 589.131409,423.075897 
	C578.228149,424.859833 571.485229,431.559296 569.863342,442.600281 
	C568.999451,448.480988 569.272705,454.528748 569.032715,461.500610 
M902.908875,511.853729 
	C901.314880,512.231934 899.721802,512.935059 898.126770,512.939636 
	C873.808167,513.009827 849.488770,513.076538 825.170837,512.932739 
	C818.338806,512.892395 814.982300,509.115997 814.960999,502.324371 
	C814.925049,490.831512 814.942017,479.338501 814.940491,467.845551 
	C814.938416,452.561829 814.940002,437.278107 814.940002,421.776428 
	C807.970703,421.776428 801.430847,421.776428 795.037964,421.776428 
	C794.768555,422.453583 794.542664,422.756561 794.542297,423.059845 
	C794.512390,449.375763 794.408691,475.692169 794.545898,502.007324 
	C794.583496,509.207764 795.859009,516.189209 801.808838,521.318359 
	C808.019287,526.672119 815.625122,528.663696 823.373474,528.766968 
	C850.352051,529.126770 877.341125,529.187927 904.319702,528.844727 
	C916.843750,528.685364 924.697632,523.187195 927.342346,513.696716 
	C928.482178,509.606201 928.818604,505.187775 928.856934,500.912384 
	C929.017944,482.924561 928.928772,464.934448 928.930542,446.945190 
	C928.931335,438.643768 928.930664,430.342316 928.930664,421.375549 
	C923.629761,421.375549 918.649292,421.698730 913.731812,421.280945 
	C909.183228,420.894531 908.213318,422.538361 908.250427,426.867859 
	C908.460693,451.351410 908.339172,475.837769 908.357727,500.323151 
	C908.361023,504.733734 908.347107,509.083588 902.908875,511.853729 
M175.946457,459.471130 
	C179.541397,453.879303 183.136322,448.287506 186.986465,442.298737 
	C188.334991,444.470917 189.255524,445.997833 190.218155,447.497742 
	C207.035767,473.701630 223.837479,499.915863 240.743439,526.062683 
	C241.573883,527.347046 243.291061,528.810852 244.653564,528.870911 
	C251.258148,529.162109 257.882629,529.002319 265.084717,529.002319 
	C264.175507,527.498962 263.563293,526.404785 262.875092,525.360779 
	C241.818726,493.416473 220.592636,461.581909 199.834991,429.444763 
	C195.885437,423.330048 191.776138,420.288635 184.357208,421.215637 
	C180.878387,421.650269 178.771713,422.516693 176.799042,425.520905 
	C162.831985,446.791626 148.625366,467.904907 134.528183,489.090393 
	C125.809334,502.193237 117.148621,515.334778 108.101631,529.003113 
	C115.446358,529.003113 122.069061,529.109192 128.681839,528.900574 
	C129.806625,528.865051 131.256027,527.721008 131.936676,526.683228 
	C146.492874,504.490051 160.960678,482.238922 175.946457,459.471130 
M472.385101,624.429871 
	C482.465546,624.429871 492.545990,624.429871 502.686279,624.429871 
	C502.686279,622.152893 502.686279,620.738586 502.686279,618.884216 
	C492.404297,618.884216 482.323761,618.884216 472.271057,618.884216 
	C472.271057,615.367798 472.271057,612.303345 472.271057,608.912964 
	C482.981110,608.912964 493.413910,608.912964 504.156952,608.912964 
	C504.040649,606.834412 503.944305,605.112854 503.845978,603.355713 
	C490.674286,603.355713 477.927795,603.355713 465.034546,603.355713 
	C465.034546,616.324585 465.034546,629.059937 465.034546,641.704468 
	C478.215851,641.704468 491.127472,641.704468 504.194214,641.704468 
	C504.081299,639.768555 503.986786,638.148193 503.869537,636.138062 
	C493.235565,636.138062 482.827454,636.138062 472.034851,636.138062 
	C472.034851,632.294434 472.034851,628.842407 472.385101,624.429871 
M542.015320,635.414062 
	C542.015320,627.802490 542.015320,620.190857 542.015320,611.945251 
	C555.115662,621.477661 567.705750,630.699280 580.386230,639.794861 
	C582.112366,641.033020 584.290344,641.641296 586.661621,642.725220 
	C586.661621,629.016602 586.661621,616.272034 586.661621,603.499573 
	C584.472595,603.499573 582.608276,603.499573 580.150940,603.499573 
	C580.150940,612.893799 580.150940,621.904724 580.150940,631.250671 
	C579.069458,630.837402 578.569519,630.760925 578.212646,630.493408 
	C567.105652,622.168579 556.092896,613.714172 544.850891,605.576416 
	C542.552917,603.913025 539.402710,603.426941 535.985840,602.152100 
	C535.985840,616.288330 535.985840,629.024170 535.985840,641.888367 
	C538.001953,641.888367 539.788147,641.888367 542.015381,641.888367 
	C542.015381,639.971069 542.015381,638.178528 542.015320,635.414062 
M388.104675,624.470581 
	C388.107239,626.469238 388.102570,628.468018 388.113647,630.466614 
	C388.155304,637.969360 389.454254,640.713379 396.703461,641.292480 
	C406.545044,642.078796 416.554688,641.600037 426.411835,640.740967 
	C428.766418,640.535767 432.054138,636.994446 432.701294,634.429504 
	C433.754456,630.255798 432.985443,625.622375 432.985443,621.228149 
	C430.385620,621.228149 428.304688,621.228149 425.922638,621.228149 
	C425.922638,624.600830 425.792450,627.742310 425.956909,630.868347 
	C426.144745,634.438293 424.710663,636.099915 421.062744,636.053528 
	C414.069061,635.964661 407.071350,635.920715 400.079681,636.067200 
	C396.763458,636.136719 395.570160,634.686218 395.740417,631.570862 
	C395.840240,629.744324 395.701050,627.905762 395.764099,626.075928 
	C395.946381,620.784180 394.169830,613.346558 396.921997,610.774780 
	C400.006622,607.892334 407.200562,609.233093 412.616638,609.065369 
	C419.037292,608.866455 425.468781,609.018616 432.178223,609.018616 
	C432.076202,606.744446 431.998047,605.001892 431.952148,603.978760 
	C419.689514,603.978760 407.890198,603.680847 396.117523,604.111084 
	C390.656891,604.310547 388.323547,607.533569 388.131470,612.993286 
	C388.008545,616.486694 388.106018,619.987854 388.104675,624.470581 
M626.064758,611.038025 
	C628.126343,610.364807 630.176575,609.153687 632.251465,609.109985 
	C642.022461,608.904053 651.800171,609.018311 661.575500,609.018311 
	C661.925415,608.572205 662.275269,608.126099 662.625183,607.679993 
	C661.497620,606.159363 660.376770,603.327148 659.241455,603.321350 
	C648.115723,603.264221 636.981262,603.536682 625.863403,604.032471 
	C621.811096,604.213074 619.017700,606.745422 618.823730,610.958862 
	C618.481262,618.397217 618.288696,625.857178 618.449585,633.299133 
	C618.571289,638.929688 622.549072,641.677612 627.566223,641.838135 
	C638.838501,642.198792 650.130188,641.951233 661.785339,641.951233 
	C661.655701,639.780640 661.553467,638.069336 661.433960,636.068298 
	C650.758728,636.068298 640.614624,635.974243 630.473938,636.120239 
	C627.009033,636.170044 625.666565,634.817017 625.741455,631.435120 
	C625.885071,624.943237 625.858887,618.447632 626.064758,611.038025 
M325.458679,612.902527 
	C319.092621,622.438904 312.726562,631.975281 306.394531,641.460693 
	C312.226166,643.584106 315.257568,640.871033 317.946503,636.435120 
	C323.141785,627.864502 328.732361,619.533447 334.383881,610.753784 
	C340.151459,619.765503 346.034912,628.247498 351.116730,637.185181 
	C353.836853,641.969177 357.074463,642.898560 362.232666,641.503723 
	C354.092560,629.180115 346.171021,617.098206 338.138031,605.090881 
	C336.214355,602.215454 332.881104,602.148987 330.761597,604.900085 
	C328.962036,607.235718 327.503113,609.833862 325.458679,612.902527 
M715.605225,642.005920 
	C717.350403,642.005920 719.095642,642.005920 721.880493,642.005920 
	C717.549316,629.214233 724.011047,621.625244 733.090881,615.261353 
	C733.360168,615.072571 733.596436,614.826599 733.816772,614.579407 
	C737.264465,610.710754 740.707031,606.837524 743.843689,603.310608 
	C738.976929,601.862305 735.050232,604.071899 731.330200,608.050232 
	C727.038818,612.639465 722.142700,616.663208 717.435669,621.000305 
	C712.419495,616.321594 707.167175,611.929871 702.546997,606.951416 
	C698.902649,603.024475 694.892273,602.626221 689.276428,603.582825 
	C696.292114,609.985107 702.647400,615.950806 709.197632,621.694092 
	C712.612610,624.688293 714.753967,627.824097 714.104553,632.717590 
	C713.706604,635.716309 714.437134,638.864807 715.605225,642.005920 
z"/>
<path fill="#FDFDFD" opacity="1.000000" stroke="none" 
	d="
M461.794739,526.965942 
	C456.969208,527.656433 452.558929,528.861694 448.143219,528.881836 
	C413.652893,529.039246 379.161499,528.968994 344.333130,528.968994 
	C344.333130,493.311890 344.333130,457.736481 344.333130,421.666718 
	C345.559784,421.587860 346.973694,421.418213 348.387665,421.417603 
	C379.054047,421.404266 409.721924,421.244202 440.385681,421.529297 
	C447.940613,421.599518 455.675201,422.350983 462.987030,424.162323 
	C475.925171,427.367493 481.389313,435.975708 481.831635,448.765533 
	C482.447693,466.577393 482.337921,484.435638 481.864288,502.256073 
	C481.572388,513.238098 477.063263,522.218811 461.794739,526.965942 
M400.500000,437.060608 
	C388.420502,437.060608 376.340973,437.060608 364.236145,437.060608 
	C364.236145,462.832245 364.236145,487.754730 364.236145,512.983154 
	C392.587830,512.983154 420.709625,513.146790 448.827423,512.882202 
	C457.133972,512.804077 461.791870,508.143768 461.911469,500.342834 
	C462.166840,483.685516 462.168488,467.018524 461.899231,450.361572 
	C461.785461,443.323914 457.942169,438.972473 451.907074,438.063446 
	C447.972961,437.470886 443.965790,437.140472 439.987610,437.104156 
	C427.159332,436.987030 414.329346,437.060547 400.500000,437.060608 
z"/>
<path fill="#FBFBFB" opacity="1.000000" stroke="none" 
	d="
M569.032715,461.000854 
	C569.272705,454.528748 568.999451,448.480988 569.863342,442.600281 
	C571.485229,431.559296 578.228149,424.859833 589.131409,423.075897 
	C594.829834,422.143616 600.643494,421.524200 606.411072,421.475555 
	C627.891052,421.294342 649.375122,421.261902 670.853943,421.502502 
	C677.098267,421.572418 683.531738,421.977783 689.526123,423.562378 
	C702.005615,426.861359 707.659668,434.750000 707.840759,448.410004 
	C708.077087,466.224854 708.097412,484.048126 707.838074,501.862335 
	C707.592163,518.750916 698.069336,528.203979 678.994812,528.698975 
	C652.037659,529.398560 625.048218,528.978333 598.074402,528.783508 
	C594.024536,528.754272 589.859131,527.743225 585.963684,526.505188 
	C574.798706,522.956665 569.165039,514.683655 569.060730,501.965576 
	C568.950134,488.478088 569.033875,474.989014 569.032715,461.000854 
M687.294312,491.496582 
	C687.296387,477.998444 687.214722,464.499634 687.329773,451.002441 
	C687.407837,441.840149 687.094849,438.656952 674.394714,437.110809 
	C673.244263,436.970734 672.064331,437.064117 670.898132,437.063965 
	C649.234497,437.061157 627.570801,437.034363 605.907349,437.095642 
	C603.437561,437.102631 600.943848,437.466034 598.505066,437.906433 
	C591.846375,439.108795 589.573364,441.103851 589.493164,447.619843 
	C589.265625,466.111664 589.290527,484.610992 589.564453,503.102173 
	C589.656189,509.297058 593.507385,512.896484 599.736877,512.931946 
	C625.565674,513.079163 651.396484,513.088135 677.225098,512.925598 
	C683.728943,512.884644 687.042114,509.094604 687.266235,502.490997 
	C687.379211,499.162170 687.291382,495.826569 687.294312,491.496582 
z"/>
<path fill="#F9F9F9" opacity="1.000000" stroke="none" 
	d="
M903.265930,511.656677 
	C908.347107,509.083588 908.361023,504.733734 908.357727,500.323151 
	C908.339172,475.837769 908.460693,451.351410 908.250427,426.867859 
	C908.213318,422.538361 909.183228,420.894531 913.731812,421.280945 
	C918.649292,421.698730 923.629761,421.375549 928.930664,421.375549 
	C928.930664,430.342316 928.931335,438.643768 928.930542,446.945190 
	C928.928772,464.934448 929.017944,482.924561 928.856934,500.912384 
	C928.818604,505.187775 928.482178,509.606201 927.342346,513.696716 
	C924.697632,523.187195 916.843750,528.685364 904.319702,528.844727 
	C877.341125,529.187927 850.352051,529.126770 823.373474,528.766968 
	C815.625122,528.663696 808.019287,526.672119 801.808838,521.318359 
	C795.859009,516.189209 794.583496,509.207764 794.545898,502.007324 
	C794.408691,475.692169 794.512390,449.375763 794.542297,423.059845 
	C794.542664,422.756561 794.768555,422.453583 795.037964,421.776428 
	C801.430847,421.776428 807.970703,421.776428 814.940002,421.776428 
	C814.940002,437.278107 814.938416,452.561829 814.940491,467.845551 
	C814.942017,479.338501 814.925049,490.831512 814.960999,502.324371 
	C814.982300,509.115997 818.338806,512.892395 825.170837,512.932739 
	C849.488770,513.076538 873.808167,513.009827 898.126770,512.939636 
	C899.721802,512.935059 901.314880,512.231934 903.265930,511.656677 
z"/>
<path fill="#FDFDFD" opacity="1.000000" stroke="none" 
	d="
M175.696060,459.735077 
	C160.960678,482.238922 146.492874,504.490051 131.936676,526.683228 
	C131.256027,527.721008 129.806625,528.865051 128.681839,528.900574 
	C122.069061,529.109192 115.446358,529.003113 108.101631,529.003113 
	C117.148621,515.334778 125.809334,502.193237 134.528183,489.090393 
	C148.625366,467.904907 162.831985,446.791626 176.799042,425.520905 
	C178.771713,422.516693 180.878387,421.650269 184.357208,421.215637 
	C191.776138,420.288635 195.885437,423.330048 199.834991,429.444763 
	C220.592636,461.581909 241.818726,493.416473 262.875092,525.360779 
	C263.563293,526.404785 264.175507,527.498962 265.084717,529.002319 
	C257.882629,529.002319 251.258148,529.162109 244.653564,528.870911 
	C243.291061,528.810852 241.573883,527.347046 240.743439,526.062683 
	C223.837479,499.915863 207.035767,473.701630 190.218155,447.497742 
	C189.255524,445.997833 188.334991,444.470917 186.986465,442.298737 
	C183.136322,448.287506 179.541397,453.879303 175.696060,459.735077 
z"/>
<path fill="#F9F9F9" opacity="1.000000" stroke="none" 
	d="
M472.209961,624.910095 
	C472.034851,628.842407 472.034851,632.294434 472.034851,636.138062 
	C482.827454,636.138062 493.235565,636.138062 503.869537,636.138062 
	C503.986786,638.148193 504.081299,639.768555 504.194214,641.704468 
	C491.127472,641.704468 478.215851,641.704468 465.034546,641.704468 
	C465.034546,629.059937 465.034546,616.324585 465.034546,603.355713 
	C477.927795,603.355713 490.674286,603.355713 503.845978,603.355713 
	C503.944305,605.112854 504.040649,606.834412 504.156952,608.912964 
	C493.413910,608.912964 482.981110,608.912964 472.271057,608.912964 
	C472.271057,612.303345 472.271057,615.367798 472.271057,618.884216 
	C482.323761,618.884216 492.404297,618.884216 502.686279,618.884216 
	C502.686279,620.738586 502.686279,622.152893 502.686279,624.429871 
	C492.545990,624.429871 482.465546,624.429871 472.209961,624.910095 
z"/>
<path fill="#F5F5F5" opacity="1.000000" stroke="none" 
	d="
M542.015381,635.900024 
	C542.015381,638.178528 542.015381,639.971069 542.015381,641.888367 
	C539.788147,641.888367 538.001953,641.888367 535.985840,641.888367 
	C535.985840,629.024170 535.985840,616.288330 535.985840,602.152100 
	C539.402710,603.426941 542.552917,603.913025 544.850891,605.576416 
	C556.092896,613.714172 567.105652,622.168579 578.212646,630.493408 
	C578.569519,630.760925 579.069458,630.837402 580.150940,631.250671 
	C580.150940,621.904724 580.150940,612.893799 580.150940,603.499573 
	C582.608276,603.499573 584.472595,603.499573 586.661621,603.499573 
	C586.661621,616.272034 586.661621,629.016602 586.661621,642.725220 
	C584.290344,641.641296 582.112366,641.033020 580.386230,639.794861 
	C567.705750,630.699280 555.115662,621.477661 542.015320,611.945251 
	C542.015320,620.190857 542.015320,627.802490 542.015381,635.900024 
z"/>
<path fill="#F5F5F5" opacity="1.000000" stroke="none" 
	d="
M388.104675,623.978027 
	C388.106018,619.987854 388.008545,616.486694 388.131470,612.993286 
	C388.323547,607.533569 390.656891,604.310547 396.117523,604.111084 
	C407.890198,603.680847 419.689514,603.978760 431.952148,603.978760 
	C431.998047,605.001892 432.076202,606.744446 432.178223,609.018616 
	C425.468781,609.018616 419.037292,608.866455 412.616638,609.065369 
	C407.200562,609.233093 400.006622,607.892334 396.921997,610.774780 
	C394.169830,613.346558 395.946381,620.784180 395.764099,626.075928 
	C395.701050,627.905762 395.840240,629.744324 395.740417,631.570862 
	C395.570160,634.686218 396.763458,636.136719 400.079681,636.067200 
	C407.071350,635.920715 414.069061,635.964661 421.062744,636.053528 
	C424.710663,636.099915 426.144745,634.438293 425.956909,630.868347 
	C425.792450,627.742310 425.922638,624.600830 425.922638,621.228149 
	C428.304688,621.228149 430.385620,621.228149 432.985443,621.228149 
	C432.985443,625.622375 433.754456,630.255798 432.701294,634.429504 
	C432.054138,636.994446 428.766418,640.535767 426.411835,640.740967 
	C416.554688,641.600037 406.545044,642.078796 396.703461,641.292480 
	C389.454254,640.713379 388.155304,637.969360 388.113647,630.466614 
	C388.102570,628.468018 388.107239,626.469238 388.104675,623.978027 
z"/>
<path fill="#F5F5F5" opacity="1.000000" stroke="none" 
	d="
M625.983948,611.495789 
	C625.858887,618.447632 625.885071,624.943237 625.741455,631.435120 
	C625.666565,634.817017 627.009033,636.170044 630.473938,636.120239 
	C640.614624,635.974243 650.758728,636.068298 661.433960,636.068298 
	C661.553467,638.069336 661.655701,639.780640 661.785339,641.951233 
	C650.130188,641.951233 638.838501,642.198792 627.566223,641.838135 
	C622.549072,641.677612 618.571289,638.929688 618.449585,633.299133 
	C618.288696,625.857178 618.481262,618.397217 618.823730,610.958862 
	C619.017700,606.745422 621.811096,604.213074 625.863403,604.032471 
	C636.981262,603.536682 648.115723,603.264221 659.241455,603.321350 
	C660.376770,603.327148 661.497620,606.159363 662.625183,607.679993 
	C662.275269,608.126099 661.925415,608.572205 661.575500,609.018311 
	C651.800171,609.018311 642.022461,608.904053 632.251465,609.109985 
	C630.176575,609.153687 628.126343,610.364807 625.983948,611.495789 
z"/>
<path fill="#F9F9F9" opacity="1.000000" stroke="none" 
	d="
M325.676086,612.609131 
	C327.503113,609.833862 328.962036,607.235718 330.761597,604.900085 
	C332.881104,602.148987 336.214355,602.215454 338.138031,605.090881 
	C346.171021,617.098206 354.092560,629.180115 362.232666,641.503723 
	C357.074463,642.898560 353.836853,641.969177 351.116730,637.185181 
	C346.034912,628.247498 340.151459,619.765503 334.383881,610.753784 
	C328.732361,619.533447 323.141785,627.864502 317.946503,636.435120 
	C315.257568,640.871033 312.226166,643.584106 306.394531,641.460693 
	C312.726562,631.975281 319.092621,622.438904 325.676086,612.609131 
z"/>
<path fill="#F9F9F9" opacity="1.000000" stroke="none" 
	d="
M715.133057,641.975952 
	C714.437134,638.864807 713.706604,635.716309 714.104553,632.717590 
	C714.753967,627.824097 712.612610,624.688293 709.197632,621.694092 
	C702.647400,615.950806 696.292114,609.985107 689.276428,603.582825 
	C694.892273,602.626221 698.902649,603.024475 702.546997,606.951416 
	C707.167175,611.929871 712.419495,616.321594 717.435669,621.000305 
	C722.142700,616.663208 727.038818,612.639465 731.330200,608.050232 
	C735.050232,604.071899 738.976929,601.862305 743.843689,603.310608 
	C740.707031,606.837524 737.264465,610.710754 733.816772,614.579407 
	C733.596436,614.826599 733.360168,615.072571 733.090881,615.261353 
	C724.011047,621.625244 717.549316,629.214233 721.880493,642.005920 
	C719.095642,642.005920 717.350403,642.005920 715.133057,641.975952 
z"/>
<path fill="#000000" opacity="1.000000" stroke="none" 
	d="
M401.000000,437.060608 
	C414.329346,437.060547 427.159332,436.987030 439.987610,437.104156 
	C443.965790,437.140472 447.972961,437.470886 451.907074,438.063446 
	C457.942169,438.972473 461.785461,443.323914 461.899231,450.361572 
	C462.168488,467.018524 462.166840,483.685516 461.911469,500.342834 
	C461.791870,508.143768 457.133972,512.804077 448.827423,512.882202 
	C420.709625,513.146790 392.587830,512.983154 364.236145,512.983154 
	C364.236145,487.754730 364.236145,462.832245 364.236145,437.060608 
	C376.340973,437.060608 388.420502,437.060608 401.000000,437.060608 
z"/>
<path fill="#010101" opacity="1.000000" stroke="none" 
	d="
M687.294312,491.995300 
	C687.291382,495.826569 687.379211,499.162170 687.266235,502.490997 
	C687.042114,509.094604 683.728943,512.884644 677.225098,512.925598 
	C651.396484,513.088135 625.565674,513.079163 599.736877,512.931946 
	C593.507385,512.896484 589.656189,509.297058 589.564453,503.102173 
	C589.290527,484.610992 589.265625,466.111664 589.493164,447.619843 
	C589.573364,441.103851 591.846375,439.108795 598.505066,437.906433 
	C600.943848,437.466034 603.437561,437.102631 605.907349,437.095642 
	C627.570801,437.034363 649.234497,437.061157 670.898132,437.063965 
	C672.064331,437.064117 673.244263,436.970734 674.394714,437.110809 
	C687.094849,438.656952 687.407837,441.840149 687.329773,451.002441 
	C687.214722,464.499634 687.296387,477.998444 687.294312,491.995300 
z"/>
</svg>